<?xml version="1.0" standalone="no"?>
<!DOCTYPE svg PUBLIC "-//W3C//DTD SVG 1.1//EN" "http://www.w3.org/Graphics/SVG/1.1/DTD/svg11.dtd" >
<svg xmlns="http://www.w3.org/2000/svg">
<metadata></metadata>
<defs>
<font id="futuramedium_italic" horiz-adv-x="1264" >
<font-face units-per-em="2048" ascent="1638" descent="-410" />
<missing-glyph horiz-adv-x="632" />
<glyph unicode="&#xfb01;" horiz-adv-x="1087" d="M105 0l89 732h-80l26 210h80l47 380q20 164 151 280q130 117 296 117q150 0 250 -100q101 -99 101 -248q0 -25 -3 -49l-11 -91h-225l11 91q1 8 1.5 14t0.5 11q0 68 -43 114q-42 48 -109 48q-74 0 -130 -56t-65 -131l-47 -380h258l-26 -210h-258l-89 -732h-225zM675 0 l115 942h225l-115 -942h-225z" />
<glyph unicode="&#xfb02;" horiz-adv-x="1093" d="M105 0l89 732h-80l26 210h80l47 380q20 164 151 280q130 117 296 117q150 0 250 -100q101 -99 101 -248q0 -25 -3 -49l-162 -1322h-225l162 1322q1 8 1.5 14t0.5 11q0 68 -43 114q-42 48 -109 48q-74 0 -130 -56t-65 -131l-47 -380h258l-26 -210h-258l-89 -732h-225z" />
<glyph horiz-adv-x="0" />
<glyph horiz-adv-x="682" />
<glyph horiz-adv-x="0" />
<glyph horiz-adv-x="0" />
<glyph horiz-adv-x="0" />
<glyph unicode="&#x9;" horiz-adv-x="632" />
<glyph unicode="&#xd;" horiz-adv-x="682" />
<glyph horiz-adv-x="0" />
<glyph unicode=" "  horiz-adv-x="632" />
<glyph unicode="&#x09;" horiz-adv-x="632" />
<glyph unicode="&#xa0;" horiz-adv-x="632" />
<glyph unicode="!" horiz-adv-x="638" d="M135 118q0 55 38 93q41 38 96 38q28 0 52.5 -10.5t42.5 -29t28.5 -44t10.5 -55.5q0 -56 -38 -94t-94 -38q-57 0 -97 40q-39 40 -39 100zM192 405l139 1139h219l-140 -1139h-218z" />
<glyph unicode="&#x22;" horiz-adv-x="825" d="M200 923l34 621h248l-119 -621h-163zM558 923l34 621h248l-119 -621h-163z" />
<glyph unicode="#" d="M68 475l21 172h243l53 287h-231l21 176h243l83 448l173 -23l-79 -425h264l84 448l173 -23l-79 -425h224l-21 -176h-233l-53 -287h222l-21 -176h-234l-89 -478l-174 23l85 455h-266l-89 -478l-177 23l85 459h-228zM510 647h264l52 287h-263z" />
<glyph unicode="$" d="M91 285l174 118q31 -63 65 -106.5t71 -69.5q77 -53 188 -53q119 0 186 67q70 67 70 182q0 89 -48 143q-48 56 -205 144q-88 51 -149 98t-95 95q-68 95 -68 233q0 178 111 297q113 119 298 140l24 203h170l-26 -214q172 -48 290 -217l-151 -144q-102 169 -260 169 q-96 0 -165 -66t-69 -159q0 -77 50 -136q49 -58 179 -131q197 -109 267 -206q71 -98 71 -250q0 -187 -109 -305q-109 -121 -298 -143l-29 -236h-170l30 241q-138 21 -230 90q-89 68 -172 216z" />
<glyph unicode="%" horiz-adv-x="1642" d="M162 1105q0 195 90 329q90 133 222 133q114 0 181 -94q69 -95 69 -249q0 -202 -87 -335q-86 -132 -219 -132q-118 0 -187 93q-69 94 -69 255zM254 20l1100 1570l94 -65l-1101 -1570zM293 1093q0 -100 31.5 -156.5t88.5 -56.5q76 0 128 100t52 249q0 100 -31.5 158 t-86.5 58q-77 0 -129 -103q-53 -104 -53 -249zM973 325q0 194 90 328t222 134q113 0 182 -94q69 -95 69 -249q0 -203 -87 -335q-86 -131 -219 -131q-119 0 -188 93t-69 254zM1105 312q0 -100 31.5 -156t88.5 -56q76 0 128 100t52 248q0 103 -31.5 160t-86.5 57 q-77 0 -129 -103q-53 -104 -53 -250z" />
<glyph unicode="&#x26;" horiz-adv-x="1444" d="M111 428q0 136 75 243q77 107 246 218l40 25q-116 182 -116 327q0 146 96 236q97 91 253 91q162 0 264 -96q103 -96 103 -248q0 -232 -306 -371l266 -378l177 165l143 -165l-199 -172l210 -303h-263l-115 166l-32 -23q-225 -165 -399 -165q-177 0 -311 134 q-132 135 -132 316zM329 429q0 -103 70 -176q70 -72 170 -72q118 0 302 151l-291 420q-134 -83 -193 -159q-58 -73 -58 -164zM569 1230q0 -77 90 -216q117 58 165 109q47 50 47 118q0 65 -43 107q-42 42 -107 42q-64 0 -108 -47t-44 -113z" />
<glyph unicode="'" horiz-adv-x="466" d="M200 923l34 621h248l-119 -621h-163z" />
<glyph unicode="(" horiz-adv-x="698" d="M177 432q0 656 395 1276l158 -89q-194 -318 -282 -601q-86 -287 -86 -596q0 -383 136 -784l-168 -66q-153 397 -153 860z" />
<glyph unicode=")" horiz-adv-x="698" d="M-1 -340q96 158 165.5 307.5t114.5 292.5q87 283 87 596q0 376 -137 785l169 67q152 -402 152 -862q0 -658 -394 -1274z" />
<glyph unicode="*" d="M338 1380l82 176l240 -129l18 272l192 -24l-48 -268l264 67l37 -190l-270 -37l145 -230l-169 -94l-119 245l-174 -210l-142 133l197 188z" />
<glyph unicode="+" d="M127 695v185h442v427h188v-427h442v-185h-442v-435h-188v435h-442z" />
<glyph unicode="," horiz-adv-x="632" d="M-74 -229l316 609l171 -95l-351 -588z" />
<glyph unicode="-" horiz-adv-x="432" d="M-15 399l20 175h433l-22 -175h-431z" />
<glyph unicode="." horiz-adv-x="632" d="M132 116q0 56 36 94q38 38 91 38q59 0 100 -41q42 -41 42 -98q0 -53 -41 -92t-95 -39q-55 0 -94 40t-39 98z" />
<glyph unicode="/" horiz-adv-x="981" d="M-69 -377l954 2089l155 -68l-955 -2092z" />
<glyph unicode="0" d="M118 656q0 385 174 648q176 263 430 263q217 0 346 -182t129 -488q0 -197 -57 -399q-57 -201 -147 -321q-151 -199 -385 -199q-227 0 -359 182q-131 182 -131 496zM340 628q0 -208 68 -327q69 -117 189 -117q150 0 251 170q56 95 90 250q36 157 36 304q0 214 -67 332 q-67 121 -185 121q-161 0 -272 -212q-110 -212 -110 -521z" />
<glyph unicode="1" d="M325 1331l104 213h454l-190 -1544h-229l165 1331h-304z" />
<glyph unicode="2" d="M36 0l616 679q96 105 153 173t79 103q42 67 42 160q0 57 -17.5 102.5t-50 77.5t-79.5 49t-105 17q-65 0 -114 -18.5t-82.5 -57.5t-53.5 -99.5t-27 -144.5h-217q17 228 95 339q131 188 405 188q213 0 340 -124q128 -123 128 -326q0 -132 -53 -230q-26 -49 -83.5 -120 t-145.5 -168l-357 -387h553l-27 -213h-999z" />
<glyph unicode="3" d="M101 384h212q16 -97 81 -148.5t174 -51.5q126 0 205 76t79 198q0 239 -309 239l25 203h56q118 -1 182.5 65.5t64.5 192.5q0 94 -54 148.5t-151 54.5q-209 0 -229 -251h-202q30 458 456 458q183 0 293 -107q109 -106 109 -288q0 -138 -59.5 -227t-190.5 -145 q231 -92 231 -353q0 -212 -140 -341t-367 -129q-101 0 -182.5 27t-141 78.5t-96 127t-46.5 173.5z" />
<glyph unicode="4" d="M7 286l1123 1427l-151 -1230h144l-24 -197h-144l-37 -286h-229l37 286h-719zM400 483h351l67 545z" />
<glyph unicode="5" d="M40 270l159 128q88 -120 166 -168q80 -47 187 -47q147 0 236 98q88 97 88 264q0 144 -84 227q-83 84 -227 84q-145 0 -334 -108l255 796h640l-26 -213h-474l-102 -310q35 7 65.5 10.5t56.5 3.5q211 0 332 -133t121 -364q0 -252 -150 -406t-394 -154q-331 0 -515 292z" />
<glyph unicode="6" d="M95 480q0 211 200 483l480 648l173 -136l-351 -472q35 8 68 12t62 4q198 0 319 -127q121 -124 121 -334q0 -243 -165 -412q-164 -168 -400 -168q-217 0 -363 143q-144 142 -144 359zM317 470q0 -131 78 -209t208 -78q145 0 243 102q99 102 99 251q0 127 -81 210 q-80 83 -205 83q-141 0 -241 -106q-101 -107 -101 -253z" />
<glyph unicode="7" d="M108 82l844 1249h-743l26 213h1114l-1059 -1571z" />
<glyph unicode="8" d="M137 430q0 292 296 414q-177 120 -177 316q0 181 126 294q128 113 328 113q193 0 310 -111t117 -293q0 -60 -12.5 -109.5t-40 -90.5t-71 -76t-104.5 -65q214 -126 214 -380q0 -203 -139 -333q-140 -131 -353 -131q-217 0 -357 125q-137 126 -137 327zM359 438 q0 -113 75 -183q77 -71 193 -71q120 0 197 77q77 80 77 200q0 110 -74 179t-190 69q-125 0 -201 -76q-77 -75 -77 -195zM477 1144q0 -89 60 -146t152 -57q97 0 162 59q64 60 64 154q0 92 -59 149t-154 57q-96 0 -161 -62q-64 -61 -64 -154z" />
<glyph unicode="9" d="M134 990q0 243 165 410q167 167 406 167q213 0 356 -144q143 -146 143 -360t-199 -482l-481 -647l-172 134l350 473q-57 -15 -110 -15q-210 0 -334 126q-124 127 -124 338zM356 996q0 -127 78 -203q80 -77 207 -77q143 0 242 101q99 102 99 248q0 130 -80 213t-205 83 q-146 0 -243 -105q-98 -107 -98 -260z" />
<glyph unicode=":" horiz-adv-x="632" d="M132 116q0 56 36 94q38 38 91 38q59 0 100 -41q42 -41 42 -98q0 -53 -41 -92t-95 -39q-55 0 -94 40t-39 98zM221 841q0 56 36 94q38 38 92 38q58 0 99 -41q42 -41 42 -97q0 -52 -41 -93q-40 -40 -95 -40t-94 41q-39 40 -39 98z" />
<glyph unicode=";" horiz-adv-x="632" d="M-74 -229l316 609l171 -95l-351 -588zM211 841q0 56 36 94q38 38 91 38q58 0 99 -41q42 -41 42 -97q0 -52 -41 -93q-40 -40 -94 -40q-55 0 -94 41q-39 40 -39 98z" />
<glyph unicode="&#x3c;" d="M158 686v197l1004 489v-230l-758 -359l758 -359v-228z" />
<glyph unicode="=" d="M127 548v170h1073v-170h-1073zM127 857v170h1072v-170h-1072z" />
<glyph unicode="&#x3e;" d="M158 195v230l757 358l-757 360v228l1003 -490v-197z" />
<glyph unicode="?" horiz-adv-x="994" d="M196 682q0 130 81 223.5t252 159.5q64 25 106 46.5t63 38.5q42 36 42 94q0 62 -44 104q-43 43 -107 43q-82 0 -125.5 -59t-43.5 -174h-198q0 200 95 305t278 105q161 0 259 -90q99 -89 99 -236q0 -119 -64 -195t-214 -133q-150 -58 -206 -109q-57 -53 -57 -130 q0 -61 38 -98.5t101 -37.5q121 0 132 158h208q-34 -340 -344 -340q-151 0 -251 93t-100 232zM316 111q0 29 10.5 54t28.5 43t42.5 28.5t53.5 10.5q55 0 94 -41t39 -97q0 -55 -38 -93t-92 -38q-58 0 -99 38q-39 37 -39 95z" />
<glyph unicode="@" horiz-adv-x="1791" d="M139 772q0 339 239 569t590 230q323 0 541 -198q217 -196 217 -491q0 -228 -118 -391q-119 -165 -279 -165q-128 0 -174 121q-123 -126 -274 -126q-165 0 -275 119q-108 118 -108 301q0 197 121 324q121 130 304 130q168 0 271 -130l14 111h147l-64 -525 q-4 -29 -5.5 -55.5t-1.5 -49.5q0 -79 68 -79q89 0 159 124q72 124 72 279q0 246 -173 407q-172 160 -440 160q-281 0 -471 -192q-191 -191 -191 -471q0 -163 69 -304q71 -141 194 -230q167 -122 418 -122q243 0 491 120l15 7l52 -139l-12 -6q-261 -126 -544 -126 q-313 0 -524 151q-155 110 -242 281q-86 175 -86 366zM699 732q0 -106 53 -174q54 -68 138 -68q107 0 188 90q82 88 82 210q0 95 -65 158t-161 63q-102 0 -169 -79q-66 -78 -66 -200z" />
<glyph unicode="A" horiz-adv-x="1446" d="M-2 0l854 1654l533 -1654h-239l-112 363h-599l-188 -363h-249zM534 561h436l-166 549z" />
<glyph unicode="B" horiz-adv-x="1193" d="M120 0l190 1544h286q135 0 219 -29q82 -29 139 -98q91 -109 91 -263q0 -234 -225 -357q273 -68 273 -342q0 -113 -48 -213q-46 -99 -130 -160q-67 -49 -147 -65q-42 -8 -101 -12.5t-140 -4.5h-407zM375 213h154q172 0 236 43q98 65 98 216q0 57 -16.5 97.5t-51.5 66.5 t-90.5 38t-133.5 12h-138zM456 869h65q294 0 294 274q0 188 -224 188h-79z" />
<glyph unicode="C" horiz-adv-x="1413" d="M135 745q0 358 218 594q219 236 550 236q261 0 520 -169l-31 -250q-201 204 -479 204q-245 0 -396 -174q-152 -173 -152 -451q0 -260 146 -406q145 -145 410 -145q221 0 390 136l-33 -271q-213 -79 -397 -79q-336 0 -541 213q-205 211 -205 562z" />
<glyph unicode="D" horiz-adv-x="1466" d="M120 0l190 1544h312q177 0 272 -18q97 -17 179 -65q151 -87 238 -261t87 -389q0 -228 -98 -422q-49 -96 -114 -168.5t-149 -123.5q-98 -56 -205 -77q-57 -10 -136 -15t-185 -5h-391zM375 213h174q192 0 300 38q105 37 183 138q136 172 136 431q0 161 -61 282 q-62 123 -168 178q-101 51 -299 51h-128z" />
<glyph unicode="E" horiz-adv-x="1089" d="M120 0l190 1544h795l-26 -213h-567l-49 -400h567l-24 -198h-567l-64 -520h567l-27 -213h-795z" />
<glyph unicode="F" horiz-adv-x="1010" d="M120 0l191 1544h762l-26 -213h-534l-49 -398h534l-24 -198h-535l-90 -735h-229z" />
<glyph unicode="G" horiz-adv-x="1644" d="M132 741q0 183 71 357q70 170 196 284q211 193 523 193q382 0 633 -311l-149 -152q-189 248 -488 248q-247 0 -401 -171q-155 -173 -155 -443q0 -248 145 -405t377 -157q164 0 280 90q115 90 148 246h-383l25 198h618q-23 -263 -126 -431q-194 -317 -576 -317 q-322 0 -530 217t-208 554z" />
<glyph unicode="H" horiz-adv-x="1466" d="M120 0l190 1544h228l-74 -605h638l74 605h229l-190 -1544h-229l93 754h-638l-92 -754h-229z" />
<glyph unicode="I" horiz-adv-x="600" d="M120 0l190 1544h229l-190 -1544h-229z" />
<glyph unicode="J" horiz-adv-x="873" d="M-34 119l117 168q104 -104 193 -104q82 0 121 85q40 81 70 327l117 949h228l-136 -1110q-10 -79 -22.5 -140t-29.5 -104q-16 -42 -39.5 -76.5t-55.5 -62.5q-95 -81 -244 -81q-178 0 -319 149z" />
<glyph unicode="K" horiz-adv-x="1380" d="M120 0l190 1544h228l-80 -656l624 656h289l-720 -718l648 -826h-276l-582 753l-92 -753h-229z" />
<glyph unicode="L" horiz-adv-x="882" d="M120 0l190 1544h228l-163 -1331h437l-26 -213h-666z" />
<glyph unicode="M" horiz-adv-x="1990" d="M59 0l534 1653l391 -1262l706 1299l127 -1690h-218l-69 984l-598 -1092l-331 1092l-308 -984h-234z" />
<glyph unicode="N" horiz-adv-x="1684" d="M120 0l201 1628l937 -1194l136 1110h228l-202 -1650l-937 1196l-134 -1090h-229z" />
<glyph unicode="O" horiz-adv-x="1816" d="M135 765q0 351 232 580q233 230 588 230t573 -213q218 -212 218 -560q0 -264 -140 -479q-111 -169 -290 -261t-396 -92q-347 0 -566 221q-219 222 -219 574zM365 765q0 -252 159 -417q159 -164 402 -164q253 0 421 177q169 175 169 443q0 253 -150 405q-150 151 -403 151 q-254 0 -427 -170q-171 -170 -171 -425z" />
<glyph unicode="P" horiz-adv-x="1142" d="M120 0l191 1544h313q204 0 311 -68q88 -55 138 -155q50 -103 50 -217q0 -166 -93 -292q-138 -187 -435 -187h-169l-77 -625h-229zM451 828h149q141 0 216.5 72.5t75.5 209.5q0 221 -282 221h-97z" />
<glyph unicode="Q" horiz-adv-x="1817" d="M134 760q0 353 234 584q232 232 592 232q344 0 561 -220q218 -221 218 -565q0 -378 -288 -633l204 -220h-258l-107 114q-164 -82 -371 -82q-348 0 -567 220q-218 221 -218 570zM364 760q0 -243 154 -409q154 -168 406 -168q110 0 214 33l-291 315h254l208 -221 q200 179 200 488q0 253 -149 408t-391 155q-261 0 -434 -170q-171 -170 -171 -431z" />
<glyph unicode="R" horiz-adv-x="1220" d="M120 0l190 1544h303q148 0 235 -27q86 -25 150 -92q121 -124 121 -320q0 -359 -389 -454l388 -651h-242l-366 635h-83l-78 -635h-229zM452 835h105q116 0 173 22q61 22 102 75q56 74 56 174q0 117 -67.5 171t-212.5 54h-96z" />
<glyph unicode="S" horiz-adv-x="1145" d="M63 285l174 118q71 -125 139 -172t177 -47q121 0 189.5 64t68.5 182q0 81 -50 137q-25 29 -74.5 65t-125.5 81q-174 103 -243 196q-66 93 -66 233q0 187 130 310q130 124 328 124q129 0 220 -52q93 -52 191 -177l-153 -146q-109 160 -250 160q-102 0 -169 -63t-67 -158 q0 -76 46 -131q23 -26 67.5 -59t111.5 -73q199 -116 266 -210q68 -95 68 -249q0 -200 -132 -324q-130 -124 -343 -124q-172 0 -291 74q-60 37 -112 96.5t-100 144.5z" />
<glyph unicode="T" horiz-adv-x="982" d="M114 1331l26 213h951l-26 -213h-353l-164 -1331h-229l164 1331h-369z" />
<glyph unicode="U" horiz-adv-x="1524" d="M190 476q0 46 3.5 97t10.5 108l106 863h228l-109 -892q-5 -40 -7.5 -74t-2.5 -63q0 -154 86 -243q87 -89 236 -89q174 0 264 112q90 113 122 367l108 882h228l-112 -914q-38 -302 -142 -442q-167 -218 -464 -218q-238 0 -397 144q-158 146 -158 362z" />
<glyph unicode="V" horiz-adv-x="1368" d="M112 1544h232l320 -1076l566 1076h247l-879 -1614z" />
<glyph unicode="W" horiz-adv-x="2130" d="M112 1544h234l289 -1055l543 1108l311 -1080l505 1027h245l-808 -1610l-306 1080l-539 -1098z" />
<glyph unicode="X" horiz-adv-x="1254" d="M-48 0l586 828l-339 716h243l238 -531l361 531h270l-522 -740l385 -804h-240l-287 614l-427 -614h-268z" />
<glyph unicode="Y" horiz-adv-x="1195" d="M105 1544h246l285 -614l405 614h263l-572 -853l-85 -691h-229l88 707z" />
<glyph unicode="Z" horiz-adv-x="1277" d="M12 0l913 1331h-650l26 213h1022l-911 -1331h764l-27 -213h-1137z" />
<glyph unicode="[" horiz-adv-x="718" d="M70 -410l258 2099h463l-20 -170h-278l-217 -1759h278l-20 -170h-464z" />
<glyph unicode="\" horiz-adv-x="981" d="M217 1675l169 37l438 -2120l-168 -40z" />
<glyph unicode="]" horiz-adv-x="718" d="M-45 -410l21 170h277l216 1759h-278l21 170h463l-257 -2099h-463z" />
<glyph unicode="^" horiz-adv-x="1158" d="M63 812l391 739h304l392 -739h-246l-298 555l-298 -555h-245z" />
<glyph unicode="_" horiz-adv-x="1158" d="M28 -129h1158v-210h-1158v210z" />
<glyph unicode="`" horiz-adv-x="1158" d="M481 1378l162 110l191 -328l-108 -68z" />
<glyph unicode="a" horiz-adv-x="1233" d="M89 434q0 233 135 382q137 149 351 149q101 0 172 -33q72 -33 147 -114l15 124h221l-116 -942h-221l13 102q-142 -124 -294 -124q-187 0 -305 127t-118 329zM311 443q0 -124 70 -203t180 -79q122 0 211 99q89 101 89 238q0 125 -72 203q-72 79 -186 79q-124 0 -208 -97 q-84 -98 -84 -240z" />
<glyph unicode="b" horiz-adv-x="1256" d="M90 0l208 1689h221l-103 -834q87 65 151 87q67 23 145 23q192 0 317 -132q125 -131 125 -334q0 -223 -142 -371q-143 -150 -349 -150q-192 0 -336 148l-16 -126h-221zM362 441q0 -125 73 -201q73 -78 190 -78q129 0 217 97q90 97 90 235q0 126 -75 206t-195 80 q-130 0 -215 -96q-85 -94 -85 -243z" />
<glyph unicode="c" horiz-adv-x="939" d="M90 455q0 221 139 369q140 149 348 149q170 0 325 -122l-28 -225q-68 87 -130 125q-61 37 -144 37q-126 0 -207 -93t-81 -239q0 -137 76 -219q77 -83 199 -83q117 0 242 101l-29 -233q-128 -52 -244 -52q-207 0 -337 135q-129 135 -129 350z" />
<glyph unicode="d" horiz-adv-x="1274" d="M92 449q0 222 138 369t347 147q107 0 180 -37q76 -38 159 -129l109 890h221l-208 -1689h-220l12 101q-82 -73 -142 -99q-59 -24 -146 -24q-198 0 -324 131q-126 132 -126 340zM314 438q0 -125 73 -201q73 -75 194 -75q126 0 213 102q88 100 88 248q0 120 -74 194t-194 74 q-130 0 -215 -97t-85 -245z" />
<glyph unicode="e" horiz-adv-x="1149" d="M91 444q0 226 143 378q142 151 359 151q210 0 331 -136q123 -137 123 -367q0 -24 -3 -78h-728q0 -104 72 -171q73 -67 186 -67q155 0 238 116l165 -91q-86 -116 -177 -162q-92 -47 -230 -47q-219 0 -349 129t-130 345zM328 570h495q-35 218 -241 218q-195 0 -254 -218z " />
<glyph unicode="f" horiz-adv-x="629" d="M52 737l25 205h144l52 421q20 168 91 247t203 79q80 0 187 -51l-24 -194q-62 50 -114 50q-60 0 -89 -41q-27 -41 -41 -151l-44 -360h200l-25 -205h-201l-90 -737h-221l91 737h-144z" />
<glyph unicode="g" horiz-adv-x="1256" d="M45 -93h214q8 -133 68 -193.5t186 -60.5q136 0 207 72.5t90 230.5l16 129q-140 -107 -294 -107q-192 0 -317 131q-125 134 -125 334q0 225 145 373q146 149 365 149q105 0 170 -31q71 -30 147 -109l14 117h221l-116 -949q-11 -85 -24.5 -148t-30.5 -106 q-35 -88 -104 -151q-134 -120 -348 -120q-221 0 -358 116q-70 58 -98 132q-28 68 -28 191zM312 445q0 -126 74 -206q75 -77 198 -77q137 0 225 94q89 95 89 239q0 128 -78 206q-78 79 -204 79q-131 0 -218 -96q-86 -95 -86 -239z" />
<glyph unicode="h" horiz-adv-x="1131" d="M90 0l208 1689h221l-102 -827q133 103 270 103q138 0 220 -73q85 -72 85 -189q0 -28 -3 -63.5t-8 -80.5l-69 -559h-221l70 571q6 46 6 83q0 126 -148 126q-212 0 -247 -287l-61 -493h-221z" />
<glyph unicode="i" horiz-adv-x="529" d="M89 0l116 942h221l-116 -942h-221zM256 1395q0 49 34 83q35 35 83 35q49 0 85 -37q37 -36 37 -86q0 -48 -35 -83t-84 -35t-85 36q-35 38 -35 87z" />
<glyph unicode="j" horiz-adv-x="540" d="M23 -539l182 1481h221l-182 -1481h-221zM251 1395q0 48 35 83t83 35q50 0 86 -37q37 -36 37 -87q0 -47 -35 -82t-85 -35q-49 0 -85 36q-36 37 -36 87z" />
<glyph unicode="k" horiz-adv-x="1056" d="M90 0l208 1689h221l-137 -1113l396 366h295l-494 -430l397 -512h-267l-343 448l-55 -448h-221z" />
<glyph unicode="l" horiz-adv-x="530" d="M90 0l208 1689h220l-207 -1689h-221z" />
<glyph unicode="m" horiz-adv-x="1626" d="M90 0l116 942h228l-10 -88q112 112 259 112q89 0 137 -33q48 -31 86 -117q140 149 302 149q280 0 280 -257q0 -26 -4.5 -73t-12.5 -116l-64 -519h-221l68 545q9 76 9 112q0 123 -124 123q-49 0 -85 -14.5t-61.5 -45t-42 -79t-25.5 -115.5l-64 -526h-221l69 559 q9 76 9 104q0 117 -127 117q-184 0 -215 -255l-65 -525h-221z" />
<glyph unicode="n" horiz-adv-x="1127" d="M90 0l116 942h220l-10 -87q131 110 265 110q138 0 221 -77q81 -77 81 -210q0 -72 -12 -172l-63 -506h-220l68 554q4 31 5.5 55t1.5 43q0 128 -138 128q-85 0 -146 -52q-50 -41 -74 -100q-13 -30 -22 -73.5t-16 -100.5l-56 -454h-221z" />
<glyph unicode="o" horiz-adv-x="1232" d="M92 463q0 219 151 364q152 146 380 146q224 0 365 -138q142 -136 142 -355q0 -216 -150 -363q-149 -147 -368 -147q-229 0 -374 139q-146 140 -146 354zM314 466q0 -140 82 -225q82 -87 212 -87t214 95q85 94 85 242q0 136 -79 215q-79 82 -207 82q-133 0 -220 -91 q-87 -92 -87 -231z" />
<glyph unicode="p" horiz-adv-x="1254" d="M23 -539l182 1481h221l-12 -99q143 122 301 122q188 0 313 -131t125 -331q0 -222 -143 -374q-142 -151 -353 -151q-108 0 -177 34q-72 34 -153 123l-83 -674h-221zM362 441q0 -125 76 -201q76 -78 196 -78q126 0 212 96q86 98 86 236q0 125 -72 205q-72 81 -184 81 q-134 0 -224 -98t-90 -241z" />
<glyph unicode="q" horiz-adv-x="1259" d="M88 446q0 221 143 370t356 149q104 0 180 -35q71 -34 151 -123l16 135h221l-182 -1481h-221l77 625q-135 -108 -296 -108q-194 0 -320 131q-125 134 -125 337zM310 448q0 -123 77 -206q77 -80 197 -80q124 0 213 98t89 236q0 123 -77 203q-77 81 -192 81q-130 0 -218 -96 q-89 -98 -89 -236z" />
<glyph unicode="r" horiz-adv-x="783" d="M90 0l116 942h221l-10 -81q112 106 226 106q100 0 182 -73l-141 -182q-61 52 -122 52q-42 0 -74 -16.5t-55.5 -52t-39 -91.5t-24.5 -134l-58 -470h-221z" />
<glyph unicode="s" horiz-adv-x="827" d="M39 157l145 101q89 -107 190 -107q57 0 91.5 30t34.5 78q0 42 -29 68q-14 13 -49 36t-95 55q-106 59 -147 115q-41 59 -41 144q0 128 94 212t239 84q160 0 295 -135l-125 -125q-88 79 -163 79q-51 0 -84.5 -28.5t-33.5 -70.5q0 -41 28 -69q28 -29 117 -78 q127 -71 170 -130q46 -58 46 -151q0 -134 -93 -215q-95 -80 -247 -80q-207 0 -343 187z" />
<glyph unicode="t" horiz-adv-x="601" d="M71 737l25 205h125l54 437h221l-54 -437h204l-25 -205h-204l-91 -737h-221l91 737h-125z" />
<glyph unicode="u" horiz-adv-x="1121" d="M133 308q0 23 2.5 54t7.5 71l62 509h221l-65 -529q-4 -34 -6 -59.5t-2 -42.5q0 -149 175 -149q95 0 140 49t60 172l69 559h220l-67 -548q-8 -70 -20 -122t-26 -87q-28 -67 -94 -119q-112 -88 -295 -88q-174 0 -278 89q-104 90 -104 241z" />
<glyph unicode="v" horiz-adv-x="998" d="M51 942h230l162 -602l338 602h253l-648 -1064z" />
<glyph unicode="w" horiz-adv-x="1490" d="M51 942h233l166 -575l336 601l180 -601l309 575h251l-606 -1041l-190 608l-337 -608z" />
<glyph unicode="x" horiz-adv-x="1109" d="M-45 0l478 524l-281 418h253l167 -270l225 270h282l-395 -436l339 -506h-256l-223 358l-304 -358h-285z" />
<glyph unicode="y" horiz-adv-x="1078" d="M8 -539l379 656l-337 825h236l233 -602l341 602h253l-853 -1481h-252z" />
<glyph unicode="z" horiz-adv-x="1062" d="M-18 0l631 737h-473l25 205h888l-635 -737h557l-25 -205h-968z" />
<glyph unicode="{" horiz-adv-x="732" d="M104 550l24 193q134 32 153 191l54 446q21 171 94.5 248.5t212.5 77.5l72 -2l58 -2l-25 -201h-28q-89 0 -121 -35t-45 -146l-50 -402q-13 -114 -50 -174q-34 -55 -124 -106q130 -82 113 -222l-56 -453q-6 -50 -6 -88q0 -98 127 -98l28 1l-24 -202h-57l-66 -4 q-63 0 -108.5 14t-74.5 43t-42.5 75t-13.5 110q0 49 6 97l60 492q7 52 -23.5 92.5t-87.5 54.5z" />
<glyph unicode="|" horiz-adv-x="1158" d="M491 -385v1929h232v-1929h-232z" />
<glyph unicode="}" horiz-adv-x="732" d="M-11 -425l24 203l28 -1q88 0 120 35q33 36 46 147l49 400q15 111 50 174q35 57 125 107q-129 82 -113 221l56 455q6 49 6 88q0 98 -127 98l-29 -1l25 202h57l66 4q126 0 182.5 -57t56.5 -185q0 -49 -6 -97l-61 -494q-6 -52 24.5 -92.5t87.5 -54.5l-24 -192 q-134 -32 -153 -191l-55 -446q-11 -85 -34 -146.5t-60.5 -101.5t-90 -59t-121.5 -19l-72 3h-57z" />
<glyph unicode="~" horiz-adv-x="1544" d="M240 1409l16 35q66 139 139 199t176 60q98 0 253 -70q140 -64 212 -64q84 0 115 40l61 76q11 14 18 23t10 13l120 -93q-77 -152 -156 -218q-80 -65 -189 -65q-90 0 -261 78q-126 56 -203 56q-25 0 -59 -15q-34 -13 -45 -29q-35 -49 -57 -78.5t-30 -40.5z" />
<glyph unicode="&#xa1;" horiz-adv-x="638" d="M105 -354l140 1138h218l-140 -1138h-218zM252 1079q0 56 38 94q37 39 93 39q58 0 97 -41q40 -40 40 -99q0 -29 -10.5 -53t-28.5 -41.5t-42.5 -27.5t-52.5 -10q-29 0 -53.5 10.5t-42.5 29t-28 44t-10 55.5z" />
<glyph unicode="&#xa2;" d="M236 771q0 211 127 359q128 149 315 158l29 233h170l-31 -249q95 -26 194 -105l-28 -224q-67 94 -130 133t-145 39q-127 0 -211 -97q-83 -98 -83 -245q0 -137 77 -226q78 -87 201 -87q125 0 246 112l-29 -233q-60 -23 -112.5 -36.5t-100.5 -15.5l-32 -264h-170l34 282 q-159 51 -240 169t-81 297z" />
<glyph unicode="&#xa3;" d="M21 117q116 143 263 177q51 118 51 222q0 12 -1.5 31.5t-3.5 46.5h-223l19 160h181l-5 46q-10 81 -14.5 139t-4.5 93q0 234 142 385t364 151q407 0 457 -497l-203 -64q-23 359 -259 359q-128 0 -204 -93q-76 -91 -76 -248q0 -109 30 -263h372l-18 -160h-342 q1 -19 1.5 -33t0.5 -23q0 -99 -51 -252q28 -7 54 -15.5t50 -19.5l76 -34q102 -46 187 -46q123 0 237 115l103 -177q-161 -140 -337 -140q-88 0 -218 45q-216 74 -275 74q-121 0 -232 -135z" />
<glyph unicode="&#xa4;" d="M14 1406l128 128l230 -230q160 111 330 111q166 0 324 -108l229 226l127 -128l-227 -226q111 -164 111 -326q0 -165 -109 -322l230 -230l-126 -127l-229 228q-156 -111 -329 -111q-165 0 -331 109l-228 -226l-126 127l227 228q-110 152 -110 325q0 164 110 322zM347 852 q0 -148 103 -251q104 -104 251 -104q146 0 249 103q104 104 104 247q0 153 -103 256q-102 105 -251 105q-146 0 -250 -104q-103 -103 -103 -252z" />
<glyph unicode="&#xa5;" d="M112 547l19 156h426l-73 169h-332l19 156h243l-226 516h245l255 -614l374 614h263l-327 -516h217l-19 -156h-297l-108 -169h384l-19 -156h-390l-68 -547h-228l68 547h-426z" />
<glyph unicode="&#xa6;" horiz-adv-x="1158" d="M491 355h232v-740h-232v740zM491 758v786h232v-786h-232z" />
<glyph unicode="&#xa7;" d="M116 15v32h207v-47q-1 -118 59 -182t169 -64q104 0 168 58t64 152q0 133 -162 204l-139 61q-281 122 -281 382q0 263 255 379q-157 126 -157 303q0 182 124 299t320 117q207 0 326 -131t119 -360h-206v51q1 109 -65 173q-66 66 -174 66q-97 0 -164 -64q-66 -63 -66 -155 q0 -37 11 -68t36 -57.5t64.5 -50t95.5 -45.5q196 -80 270 -151q112 -111 112 -284q0 -251 -265 -368q52 -49 86 -88t50 -68q33 -60 33 -155q0 -170 -125 -277t-321 -107q-215 0 -329.5 115t-114.5 330zM420 629q0 -93 64 -154q64 -60 164 -60t164 61q66 61 66 152 q0 92 -66 154q-64 61 -167 61q-96 0 -161 -62q-64 -61 -64 -152z" />
<glyph unicode="&#xa8;" horiz-adv-x="1158" d="M366 1272q0 50 34 84q35 35 84 35t85 -37q36 -38 36 -87q0 -48 -35 -83q-34 -34 -84 -34q-49 0 -85 36q-35 38 -35 86zM726 1272q0 49 35 84t83 35q50 0 86 -37q36 -38 36 -87t-36 -83q-34 -34 -84 -34q-49 0 -85 36q-35 38 -35 86z" />
<glyph unicode="&#xa9;" horiz-adv-x="1699" d="M78 776q0 181 76 339q76 162 214 276q224 185 503 185q180 0 335 -70q213 -93 343 -295q131 -203 131 -437q0 -335 -234 -570t-566 -235t-568 236q-234 235 -234 571zM207 775q0 -285 197 -488q196 -202 476 -202q277 0 474 201q196 202 196 488q0 157 -77 316 q-77 154 -202 243q-177 126 -397 126q-274 0 -470 -202q-197 -203 -197 -482zM411 759q0 214 139 353q139 141 350 141q168 0 331 -100l7 -4l-23 -187q-8 7 -13.5 12t-9.5 9q-121 115 -288 115q-143 0 -231 -94t-88 -248q0 -150 86 -230t248 -80q132 0 230 75q5 4 12 9.5 t16 12.5l-24 -201l-11 -4q-141 -47 -251 -47q-215 0 -348 129q-132 129 -132 339z" />
<glyph unicode="&#xaa;" horiz-adv-x="788" d="M159 1236q0 143 88 231q88 91 227 91q110 0 186 -67l7 53h168l-71 -577h-168v38q-86 -52 -161 -52q-121 0 -199 79q-77 80 -77 204zM328 1244q0 -33 10.5 -61.5t29.5 -48.5t45 -31.5t58 -11.5q69 0 117 52q49 52 49 127q0 65 -42 107q-41 42 -105 42q-69 0 -116 -50 q-46 -49 -46 -125z" />
<glyph unicode="&#xab;" horiz-adv-x="931" d="M72 486l364 448l106 -91l-300 -363l210 -347l-117 -72zM407 484l366 450l104 -91l-301 -363l214 -343l-120 -76z" />
<glyph unicode="&#xac;" horiz-adv-x="1158" d="M105 402v216h1004v-618h-232v402h-772z" />
<glyph unicode="&#xad;" horiz-adv-x="432" d="M-15 399l20 175h433l-22 -175h-431z" />
<glyph unicode="&#xae;" horiz-adv-x="1699" d="M78 776q0 181 76 339q76 162 214 276q224 185 503 185q180 0 335 -70q213 -93 343 -295q131 -203 131 -437q0 -335 -234 -570t-566 -235t-568 236q-234 235 -234 571zM207 775q0 -285 197 -488q196 -202 476 -202q277 0 474 201q196 202 196 488q0 157 -77 316 q-77 154 -202 243q-177 126 -397 126q-274 0 -470 -202q-197 -203 -197 -482zM536 309l114 926h203q172 0 249 -72q80 -77 80 -197q0 -50 -14.5 -93.5t-42.5 -78.5t-67.5 -60t-89.5 -38l-14 -3l247 -384h-189l-230 368h-28l-46 -368h-172zM772 824h50q186 0 186 138 q0 119 -161 119h-44z" />
<glyph unicode="&#xaf;" horiz-adv-x="1158" d="M330 1181l19 160h642l-20 -160h-641z" />
<glyph unicode="&#xb0;" horiz-adv-x="1313" d="M437 1258q0 131 91 219q91 90 222 90q125 0 215 -91q90 -90 90 -217q0 -128 -91 -219q-90 -90 -218 -90t-219 90q-90 91 -90 218zM584 1257q0 -70 48 -119t114 -49q68 0 114 49q48 49 48 119q0 65 -47 110q-46 46 -113 46q-69 0 -117 -45q-47 -45 -47 -111z" />
<glyph unicode="&#xb1;" d="M127 0v186h1072v-186h-1072zM127 695v185h442v427h188v-427h442v-185h-442v-435h-188v435h-442z" />
<glyph unicode="&#xb2;" horiz-adv-x="896" d="M114 618l391 413q120 127 141 160q25 37 25 90q0 139 -150 139q-149 0 -163 -188h-149q10 168 87 247t229 79q134 0 217 -75t83 -199q0 -80 -34 -138q-17 -31 -52.5 -73.5t-89.5 -97.5l-208 -216h335l-18 -141h-644z" />
<glyph unicode="&#xb3;" horiz-adv-x="896" d="M161 860h147q19 -118 153 -118q36 0 67 11t53 31t34.5 48t12.5 61q0 136 -194 136l17 135h42q144 -2 144 143q0 113 -121 113q-122 0 -134 -147h-140q15 285 290 285q117 0 188 -66q70 -64 70 -175q0 -155 -141 -218q132 -56 132 -210q0 -127 -89 -207q-89 -78 -233 -78 q-134 0 -209 64t-89 192z" />
<glyph unicode="&#xb4;" horiz-adv-x="1158" d="M571 1157l268 331l165 -105l-320 -291z" />
<glyph unicode="&#xb5;" horiz-adv-x="1121" d="M23 -539l182 1481h221l-65 -529q-4 -34 -6 -59.5t-2 -42.5q0 -149 175 -149q95 0 140 49t60 172l68 559h221l-67 -548q-8 -70 -19.5 -122t-27.5 -87q-29 -68 -93 -119q-116 -89 -286 -89q-127 0 -235 63l-45 -579h-221z" />
<glyph unicode="&#xb6;" d="M136 1124q0 420 485 420h716l-154 -216h-61l-191 -1548h-213l190 1548h-172l-190 -1548h-214l123 995l-25 -1q-133 0 -214 95q-80 98 -80 255z" />
<glyph unicode="&#xb7;" horiz-adv-x="632" d="M177 773q0 56 41 97t98 41t98 -41t41 -98q0 -58 -41 -99q-40 -40 -98 -40q-59 0 -99 40t-40 100z" />
<glyph unicode="&#xb8;" horiz-adv-x="1158" d="M304 -413l200 306l186 -98l-268 -275z" />
<glyph unicode="&#xb9;" horiz-adv-x="896" d="M293 1403l72 141h294l-114 -926h-157l97 785h-192z" />
<glyph unicode="&#xba;" horiz-adv-x="788" d="M146 1247q0 133 98 222q101 89 247 89q145 0 236 -85q93 -84 93 -214q0 -134 -96 -224t-238 -90q-150 0 -244 85q-96 85 -96 217zM315 1253q0 -38 12.5 -69t34.5 -53.5t53 -35t69 -12.5q37 0 68 13t53 36t34 56t12 73q0 72 -45 115t-120 43q-73 0 -123 -47 q-48 -47 -48 -119z" />
<glyph unicode="&#xbb;" horiz-adv-x="931" d="M44 130l300 363l-213 343l120 76l263 -423l-366 -450zM379 130l300 363l-211 347l118 72l263 -426l-364 -447z" />
<glyph unicode="&#xbc;" horiz-adv-x="2059" d="M262 1403l72 141h294l-114 -926h-157l97 785h-192zM462 20l1100 1570l94 -65l-1100 -1570zM1214 169l718 874l-91 -742h89l-17 -132h-89l-22 -169h-157l22 169h-453zM1488 301h196l35 288z" />
<glyph unicode="&#xbd;" horiz-adv-x="2059" d="M262 1403l72 141h294l-114 -926h-157l97 785h-192zM462 20l1100 1570l94 -65l-1100 -1570zM1232 0l391 414q115 121 141 159q25 37 25 90q0 140 -150 140t-163 -189h-149q10 168 86.5 247.5t229.5 79.5q135 0 217 -76q82 -75 82 -198q0 -80 -33 -138q-17 -29 -52 -72 t-90 -100l-208 -216h334l-18 -141h-643z" />
<glyph unicode="&#xbe;" horiz-adv-x="2059" d="M130 860h147q19 -118 153 -118q36 0 67 11t53 31t34.5 48t12.5 61q0 136 -194 136l17 135h42q144 -2 144 143q0 113 -121 113q-122 0 -134 -147h-140q15 285 290 285q117 0 188 -66q70 -64 70 -175q0 -155 -141 -218q132 -56 132 -210q0 -127 -89 -207q-89 -78 -233 -78 q-134 0 -209 64t-89 192zM463 20l1100 1570l94 -65l-1101 -1570zM1215 169l717 874l-91 -742h89l-16 -132h-89l-22 -169h-157l22 169h-453zM1489 301h195l35 288z" />
<glyph unicode="&#xbf;" horiz-adv-x="994" d="M57 -52q0 118 64 194t214 133q148 55 205 108q58 52 58 131q0 61 -38 98.5t-101 37.5q-121 0 -132 -158h-208q34 340 344 340q150 0 251 -93q100 -93 100 -233q0 -130 -80.5 -223t-252.5 -159q-126 -49 -169 -86q-42 -35 -42 -92q0 -62 43 -104q43 -43 108 -43 q169 0 169 232h198q0 -198 -95.5 -303.5t-277.5 -105.5q-161 0 -260 90q-98 89 -98 236zM426 1080q0 55 38 93q37 39 92 39q59 0 98 -39q40 -37 40 -95q0 -29 -10.5 -54t-28.5 -43t-43 -28.5t-53 -10.5q-55 0 -94 40t-39 98z" />
<glyph unicode="&#xc0;" horiz-adv-x="1446" d="M-2 0l854 1654l533 -1654h-239l-112 363h-599l-188 -363h-249zM534 561h436l-166 549zM598 1967l174 111l197 -315l-120 -73z" />
<glyph unicode="&#xc1;" horiz-adv-x="1446" d="M-2 0l854 1654l533 -1654h-239l-112 363h-599l-188 -363h-249zM534 561h436l-166 549zM745 1776l274 315l174 -111l-328 -277z" />
<glyph unicode="&#xc2;" horiz-adv-x="1446" d="M-2 0l854 1654l533 -1654h-239l-112 363h-599l-188 -363h-249zM534 561h436l-166 549zM547 1792l362 278l258 -280l-123 -103l-156 172l-242 -175z" />
<glyph unicode="&#xc3;" horiz-adv-x="1446" d="M-2 0l854 1654l533 -1654h-239l-112 363h-599l-188 -363h-249zM522 1810q39 53 69.5 87.5t52.5 51.5q46 37 102 37q47 0 145 -56q73 -43 116 -43q66 0 106 103l117 -87q-93 -181 -223 -181q-66 0 -181 63q-60 33 -84 33q-38 0 -104 -96zM534 561h436l-166 549z" />
<glyph unicode="&#xc4;" horiz-adv-x="1446" d="M-2 0l854 1654l533 -1654h-239l-112 363h-599l-188 -363h-249zM534 561h436l-166 549zM557 1859q0 54 36 89t93 35q27 0 49.5 -10t39 -27.5t25.5 -42t9 -52.5q0 -50 -36 -86q-35 -35 -87 -35q-27 0 -51 10t-41 27t-27 41t-10 51zM933 1858q0 53 37 89q37 37 90 37t89 -38 q37 -37 37 -92q0 -51 -37 -88t-89 -37t-90 38q-37 37 -37 91z" />
<glyph unicode="&#xc5;" horiz-adv-x="1446" d="M-2 0l854 1654l533 -1654h-239l-112 363h-599l-188 -363h-249zM534 561h436l-166 549zM644 1906q0 91 64 155q65 65 156 65q92 0 157 -65t65 -157q0 -90 -65 -155t-156 -65t-156 65t-65 157zM774 1906q0 -19 7 -36t19.5 -29.5t29 -20t35.5 -7.5q38 0 64.5 26.5t26.5 65.5 q0 38 -26.5 64.5t-65.5 26.5q-37 0 -63.5 -26.5t-26.5 -63.5z" />
<glyph unicode="&#xc6;" horiz-adv-x="2172" d="M-18 0l898 1544h710l63 -213h-641l135 -405h643l63 -197h-643l171 -516h647l63 -213h-877l-120 380h-640l-222 -380h-250zM570 578h461l-164 522z" />
<glyph unicode="&#xc7;" horiz-adv-x="1413" d="M135 745q0 358 218 594q219 236 550 236q261 0 520 -169l-31 -250q-201 204 -479 204q-245 0 -396 -174q-152 -173 -152 -451q0 -260 146 -406q145 -145 410 -145q221 0 390 136l-33 -271q-213 -79 -397 -79q-336 0 -541 213q-205 211 -205 562zM509 -421l205 314 l195 -102l-275 -283z" />
<glyph unicode="&#xc8;" horiz-adv-x="1089" d="M120 0l190 1544h795l-26 -213h-567l-49 -400h567l-24 -198h-567l-64 -520h567l-27 -213h-795zM492 1966l174 111l197 -315l-120 -73z" />
<glyph unicode="&#xc9;" horiz-adv-x="1089" d="M120 0l190 1544h795l-26 -213h-567l-49 -400h567l-24 -198h-567l-64 -520h567l-27 -213h-795zM616 1775l274 315l174 -111l-328 -277z" />
<glyph unicode="&#xca;" horiz-adv-x="1089" d="M120 0l190 1544h795l-26 -213h-567l-49 -400h567l-24 -198h-567l-64 -520h567l-27 -213h-795zM429 1792l362 278l258 -280l-123 -103l-156 172l-242 -175z" />
<glyph unicode="&#xcb;" horiz-adv-x="1089" d="M120 0l190 1544h795l-26 -213h-567l-49 -400h567l-24 -198h-567l-64 -520h567l-27 -213h-795zM421 1859q0 54 36 89t93 35q27 0 49.5 -10t39 -27.5t25.5 -42t9 -52.5q0 -50 -36 -86q-35 -35 -87 -35q-27 0 -51 10t-41 27t-27 41t-10 51zM797 1858q0 53 37 89q37 37 90 37 t89 -38q37 -37 37 -92q0 -51 -37 -88t-89 -37t-90 38q-37 37 -37 91z" />
<glyph unicode="&#xcc;" horiz-adv-x="600" d="M120 0l190 1544h229l-190 -1544h-229zM205 1961l173 110l182 -315l-121 -73z" />
<glyph unicode="&#xcd;" horiz-adv-x="600" d="M120 0l190 1544h229l-190 -1544h-229zM336 1753l243 315l174 -110l-297 -278z" />
<glyph unicode="&#xce;" horiz-adv-x="599" d="M120 0l190 1544h229l-190 -1544h-229zM150 1792l347 278l242 -280l-123 -103l-141 172l-226 -175z" />
<glyph unicode="&#xcf;" horiz-adv-x="600" d="M120 0l190 1544h229l-190 -1544h-229zM158 1858q0 55 36 90t93 35q27 0 49.5 -10t39 -27.5t25.5 -42t9 -52.5q0 -50 -36 -86q-35 -35 -86 -35q-56 0 -93 37t-37 91zM503 1859q0 52 37 88t90 36t89 -38q37 -37 37 -91q0 -51 -37 -88q-38 -36 -89 -36q-52 0 -90 38 q-37 37 -37 91z" />
<glyph unicode="&#xd0;" horiz-adv-x="1466" d="M73 746l23 185h139l76 613h311q178 0 273 -18q94 -16 178 -65q153 -89 238 -261q87 -174 87 -389q0 -229 -97 -422q-49 -96 -114 -168.5t-149 -123.5q-96 -57 -206 -77q-57 -10 -135.5 -15t-184.5 -5h-392l92 746h-139zM376 213h174q191 0 299 38q105 37 183 138 q137 176 137 431q0 161 -61 282q-62 123 -168 178q-101 51 -299 51h-128l-49 -400h355l-23 -185h-355z" />
<glyph unicode="&#xd1;" horiz-adv-x="1684" d="M120 0l201 1628l937 -1194l136 1110h228l-202 -1650l-937 1196l-134 -1090h-229zM632 1810q39 53 69.5 87.5t52.5 51.5q46 37 102 37q47 0 145 -56q73 -43 116 -43q66 0 106 103l117 -87q-93 -181 -223 -181q-66 0 -181 63q-60 33 -84 33q-38 0 -104 -96z" />
<glyph unicode="&#xd2;" horiz-adv-x="1816" d="M135 765q0 351 232 580q233 230 588 230t573 -213q218 -212 218 -560q0 -264 -140 -479q-111 -169 -290 -261t-396 -92q-347 0 -566 221q-219 222 -219 574zM365 765q0 -252 159 -417q159 -164 402 -164q253 0 421 177q169 175 169 443q0 253 -150 405q-150 151 -403 151 q-254 0 -427 -170q-171 -170 -171 -425zM807 1965l174 111l197 -315l-120 -73z" />
<glyph unicode="&#xd3;" horiz-adv-x="1816" d="M135 765q0 351 232 580q233 230 588 230t573 -213q218 -212 218 -560q0 -264 -140 -479q-111 -169 -290 -261t-396 -92q-347 0 -566 221q-219 222 -219 574zM365 765q0 -252 159 -417q159 -164 402 -164q253 0 421 177q169 175 169 443q0 253 -150 405q-150 151 -403 151 q-254 0 -427 -170q-171 -170 -171 -425zM926 1762l274 315l174 -111l-328 -277z" />
<glyph unicode="&#xd4;" horiz-adv-x="1816" d="M135 765q0 351 232 580q233 230 588 230t573 -213q218 -212 218 -560q0 -264 -140 -479q-111 -169 -290 -261t-396 -92q-347 0 -566 221q-219 222 -219 574zM365 765q0 -252 159 -417q159 -164 402 -164q253 0 421 177q169 175 169 443q0 253 -150 405q-150 151 -403 151 q-254 0 -427 -170q-171 -170 -171 -425zM748 1792l362 278l258 -280l-123 -103l-156 172l-242 -175z" />
<glyph unicode="&#xd5;" horiz-adv-x="1816" d="M135 765q0 351 232 580q233 230 588 230t573 -213q218 -212 218 -560q0 -264 -140 -479q-111 -169 -290 -261t-396 -92q-347 0 -566 221q-219 222 -219 574zM365 765q0 -252 159 -417q159 -164 402 -164q253 0 421 177q169 175 169 443q0 253 -150 405q-150 151 -403 151 q-254 0 -427 -170q-171 -170 -171 -425zM714 1810q39 53 69.5 87.5t52.5 51.5q46 37 102 37q47 0 145 -56q73 -43 116 -43q66 0 106 103l117 -87q-93 -181 -223 -181q-66 0 -181 63q-60 33 -84 33q-38 0 -104 -96z" />
<glyph unicode="&#xd6;" horiz-adv-x="1816" d="M135 765q0 351 232 580q233 230 588 230t573 -213q218 -212 218 -560q0 -264 -140 -479q-111 -169 -290 -261t-396 -92q-347 0 -566 221q-219 222 -219 574zM365 765q0 -252 159 -417q159 -164 402 -164q253 0 421 177q169 175 169 443q0 253 -150 405q-150 151 -403 151 q-254 0 -427 -170q-171 -170 -171 -425zM753 1859q0 54 36 89t93 35q27 0 49.5 -10t39 -27.5t25.5 -42t9 -52.5q0 -50 -36 -86q-35 -35 -87 -35q-27 0 -51 10t-41 27t-27 41t-10 51zM1129 1858q0 53 37 89q37 37 90 37t89 -38q37 -37 37 -92q0 -51 -37 -88t-89 -37t-90 38 q-37 37 -37 91z" />
<glyph unicode="&#xd7;" d="M198 1134l125 119l334 -336l334 339l138 -138l-335 -337l335 -335l-125 -120l-331 333l-334 -340l-138 138l334 337z" />
<glyph unicode="&#xd8;" horiz-adv-x="1817" d="M78 123l188 169q-38 72 -64 132.5t-40 111.5q-28 94 -28 228q0 352 233 582q232 229 591 229q155 0 281 -41q122 -40 259 -141l192 168l112 -123l-195 -173q139 -181 139 -458q0 -365 -235 -600q-234 -237 -592 -237q-161 0 -285 45q-120 45 -267 155l-187 -167zM364 763 q0 -136 80 -311l880 785q-128 123 -364 123q-255 0 -426 -171q-170 -170 -170 -426zM546 327q158 -143 381 -143q253 0 420 177q168 178 168 444q0 185 -80 307z" />
<glyph unicode="&#xd9;" horiz-adv-x="1524" d="M190 476q0 46 3.5 97t10.5 108l106 863h228l-109 -892q-5 -40 -7.5 -74t-2.5 -63q0 -154 86 -243q87 -89 236 -89q174 0 264 112q90 113 122 367l108 882h228l-112 -914q-38 -302 -142 -442q-167 -218 -464 -218q-238 0 -397 144q-158 146 -158 362zM665 1965l174 111 l197 -315l-120 -73z" />
<glyph unicode="&#xda;" horiz-adv-x="1524" d="M190 476q0 46 3.5 97t10.5 108l106 863h228l-109 -892q-5 -40 -7.5 -74t-2.5 -63q0 -154 86 -243q87 -89 236 -89q174 0 264 112q90 113 122 367l108 882h228l-112 -914q-38 -302 -142 -442q-167 -218 -464 -218q-238 0 -397 144q-158 146 -158 362zM764 1762l274 315 l174 -111l-328 -277z" />
<glyph unicode="&#xdb;" horiz-adv-x="1524" d="M190 476q0 46 3.5 97t10.5 108l106 863h228l-109 -892q-5 -40 -7.5 -74t-2.5 -63q0 -154 86 -243q87 -89 236 -89q174 0 264 112q90 113 122 367l108 882h228l-112 -914q-38 -302 -142 -442q-167 -218 -464 -218q-238 0 -397 144q-158 146 -158 362zM603 1792l362 278 l258 -280l-123 -103l-156 172l-242 -175z" />
<glyph unicode="&#xdc;" horiz-adv-x="1524" d="M190 476q0 46 3.5 97t10.5 108l106 863h228l-109 -892q-5 -40 -7.5 -74t-2.5 -63q0 -154 86 -243q87 -89 236 -89q174 0 264 112q90 113 122 367l108 882h228l-112 -914q-38 -302 -142 -442q-167 -218 -464 -218q-238 0 -397 144q-158 146 -158 362zM604 1859q0 54 36 89 t93 35q27 0 49.5 -10t39 -27.5t25.5 -42t9 -52.5q0 -50 -36 -86q-35 -35 -87 -35q-27 0 -51 10t-41 27t-27 41t-10 51zM980 1858q0 53 37 89q37 37 90 37t89 -38q37 -37 37 -92q0 -51 -37 -88t-89 -37t-90 38q-37 37 -37 91z" />
<glyph unicode="&#xdd;" horiz-adv-x="1195" d="M105 1544h246l285 -614l405 614h263l-572 -853l-85 -691h-229l88 707zM595 1762l274 315l174 -111l-328 -277z" />
<glyph unicode="&#xde;" horiz-adv-x="1143" d="M120 0l191 1544h227l-26 -216h85q204 0 311 -68q88 -55 138 -155q50 -103 50 -217q0 -166 -93 -292q-138 -187 -435 -187h-169l-50 -409h-229zM424 611h149q142 0 217.5 73t75.5 210q0 221 -282 221h-98z" />
<glyph unicode="&#xdf;" horiz-adv-x="1202" d="M90 737l25 205h106l40 328q27 220 104 312q113 134 324 134q188 0 304 -107q115 -106 115 -286q0 -256 -240 -383q224 -116 224 -388q0 -237 -141 -402q-137 -159 -380 -159q-54 0 -135 9l24 191q63 -17 103 -17q139 0 223 106t84 282q0 284 -330 284l23 190h21 q115 0 174 33q61 34 99 109q39 75 39 159q0 91 -52.5 142t-146.5 51q-104 0 -152 -64q-48 -66 -67 -232l-152 -1234h-221l90 737h-105z" />
<glyph unicode="&#xe0;" horiz-adv-x="1233" d="M89 434q0 233 135 382q137 149 351 149q101 0 172 -33q72 -33 147 -114l15 124h221l-116 -942h-221l13 102q-142 -124 -294 -124q-187 0 -305 127t-118 329zM311 443q0 -124 70 -203t180 -79q122 0 211 99q89 101 89 238q0 125 -72 203q-72 79 -186 79q-124 0 -208 -97 q-84 -98 -84 -240zM464 1378l162 110l191 -328l-108 -68z" />
<glyph unicode="&#xe1;" horiz-adv-x="1233" d="M89 434q0 233 135 382q137 149 351 149q101 0 172 -33q72 -33 147 -114l15 124h221l-116 -942h-221l13 102q-142 -124 -294 -124q-187 0 -305 127t-118 329zM311 443q0 -124 70 -203t180 -79q122 0 211 99q89 101 89 238q0 125 -72 203q-72 79 -186 79q-124 0 -208 -97 q-84 -98 -84 -240zM578 1157l268 331l165 -105l-320 -291z" />
<glyph unicode="&#xe2;" horiz-adv-x="1233" d="M89 434q0 233 135 382q137 149 351 149q101 0 172 -33q72 -33 147 -114l15 124h221l-116 -942h-221l13 102q-142 -124 -294 -124q-187 0 -305 127t-118 329zM311 443q0 -124 70 -203t180 -79q122 0 211 99q89 101 89 238q0 125 -72 203q-72 79 -186 79q-124 0 -208 -97 q-84 -98 -84 -240zM402 1192l332 296l236 -296l-100 -97l-157 187l-218 -190z" />
<glyph unicode="&#xe3;" horiz-adv-x="1233" d="M89 434q0 233 135 382q137 149 351 149q101 0 172 -33q72 -33 147 -114l15 124h221l-116 -942h-221l13 102q-142 -124 -294 -124q-187 0 -305 127t-118 329zM311 443q0 -124 70 -203t180 -79q122 0 211 99q89 101 89 238q0 125 -72 203q-72 79 -186 79q-124 0 -208 -97 q-84 -98 -84 -240zM383 1237q108 175 210 175q43 0 141 -54q76 -43 101 -43q51 0 98 101l117 -78q-93 -182 -215 -182q-36 0 -67 16l-51 24q-44 21 -48 24l-43 26q-14 8 -33 8q-38 0 -63 -45l-17 -29q-2 -2 -6 -8l-10 -15z" />
<glyph unicode="&#xe4;" horiz-adv-x="1233" d="M89 434q0 233 135 382q137 149 351 149q101 0 172 -33q72 -33 147 -114l15 124h221l-116 -942h-221l13 102q-142 -124 -294 -124q-187 0 -305 127t-118 329zM311 443q0 -124 70 -203t180 -79q122 0 211 99q89 101 89 238q0 125 -72 203q-72 79 -186 79q-124 0 -208 -97 q-84 -98 -84 -240zM410 1272q0 50 34 84q35 35 84 35t85 -37q36 -38 36 -87q0 -48 -35 -83q-34 -34 -84 -34q-49 0 -85 36q-35 38 -35 86zM770 1272q0 49 35 84t83 35q50 0 86 -37q36 -38 36 -87t-36 -83q-34 -34 -84 -34q-49 0 -85 36q-35 38 -35 86z" />
<glyph unicode="&#xe5;" horiz-adv-x="1233" d="M89 434q0 233 135 382q137 149 351 149q101 0 172 -33q72 -33 147 -114l15 124h221l-116 -942h-221l13 102q-142 -124 -294 -124q-187 0 -305 127t-118 329zM311 443q0 -124 70 -203t180 -79q122 0 211 99q89 101 89 238q0 125 -72 203q-72 79 -186 79q-124 0 -208 -97 q-84 -98 -84 -240zM493 1288q0 91 64 155t156 64q93 0 157 -64q65 -65 65 -157q0 -88 -65 -156q-65 -65 -156 -65t-156 65q-65 68 -65 158zM619 1288q0 -20 7.5 -37.5t20.5 -30.5t30 -20.5t37 -7.5q19 0 36.5 7.5t30 20.5t20 30t7.5 36q0 40 -27.5 67.5t-67.5 27.5 q-20 0 -37 -7.5t-29.5 -20t-20 -29.5t-7.5 -36z" />
<glyph unicode="&#xe6;" horiz-adv-x="1798" d="M60 299q0 137 105 224q106 88 270 88q161 0 298 -105q12 99 12 141q0 67 -52 104t-149 37q-107 0 -251 -52l23 194q156 43 261 43q226 0 333 -149q132 149 329 149q203 0 331 -137t128 -353q0 -26 -3 -78h-753q0 -111 77 -182q78 -69 203 -69q148 0 247 123l150 -107 q-147 -200 -415 -200q-246 0 -369 177q-42 -49 -82 -83t-82 -54q-79 -40 -198 -40q-176 0 -294 94q-119 95 -119 235zM282 296q0 -62 58 -102t148 -40q95 0 157 38t62 97q0 60 -63 98q-62 38 -164 38q-91 0 -144.5 -34.5t-53.5 -94.5zM959 567h519q-9 106 -72 163.5 t-175 57.5q-110 0 -174.5 -52.5t-97.5 -168.5z" />
<glyph unicode="&#xe7;" horiz-adv-x="939" d="M90 455q0 221 139 369q140 149 348 149q170 0 325 -122l-28 -225q-68 87 -130 125q-61 37 -144 37q-126 0 -207 -93t-81 -239q0 -137 76 -219q77 -83 199 -83q117 0 242 101l-29 -233q-128 -52 -244 -52q-207 0 -337 135q-129 135 -129 350zM229 -413l200 306l186 -98 l-268 -275z" />
<glyph unicode="&#xe8;" horiz-adv-x="1149" d="M91 444q0 226 143 378q142 151 359 151q210 0 331 -136q123 -137 123 -367q0 -24 -3 -78h-728q0 -104 72 -171q73 -67 186 -67q155 0 238 116l165 -91q-86 -116 -177 -162q-92 -47 -230 -47q-219 0 -349 129t-130 345zM328 570h495q-35 218 -241 218q-195 0 -254 -218z M416 1378l162 110l191 -328l-108 -68z" />
<glyph unicode="&#xe9;" horiz-adv-x="1149" d="M91 444q0 226 143 378q142 151 359 151q210 0 331 -136q123 -137 123 -367q0 -24 -3 -78h-728q0 -104 72 -171q73 -67 186 -67q155 0 238 116l165 -91q-86 -116 -177 -162q-92 -47 -230 -47q-219 0 -349 129t-130 345zM328 570h495q-35 218 -241 218q-195 0 -254 -218z M523 1157l268 331l165 -105l-320 -291z" />
<glyph unicode="&#xea;" horiz-adv-x="1149" d="M91 444q0 226 143 378q142 151 359 151q210 0 331 -136q123 -137 123 -367q0 -24 -3 -78h-728q0 -104 72 -171q73 -67 186 -67q155 0 238 116l165 -91q-86 -116 -177 -162q-92 -47 -230 -47q-219 0 -349 129t-130 345zM328 570h495q-35 218 -241 218q-195 0 -254 -218z M363 1192l332 296l236 -296l-100 -97l-157 187l-218 -190z" />
<glyph unicode="&#xeb;" horiz-adv-x="1149" d="M91 444q0 226 143 378q142 151 359 151q210 0 331 -136q123 -137 123 -367q0 -24 -3 -78h-728q0 -104 72 -171q73 -67 186 -67q155 0 238 116l165 -91q-86 -116 -177 -162q-92 -47 -230 -47q-219 0 -349 129t-130 345zM328 570h495q-35 218 -241 218q-195 0 -254 -218z M363 1272q0 50 34 84q35 35 84 35t85 -37q36 -38 36 -87q0 -48 -35 -83q-34 -34 -84 -34q-49 0 -85 36q-35 38 -35 86zM723 1272q0 49 35 84t83 35q50 0 86 -37q36 -38 36 -87t-36 -83q-34 -34 -84 -34q-49 0 -85 36q-35 38 -35 86z" />
<glyph unicode="&#xec;" horiz-adv-x="529" d="M89 0l116 942h221l-116 -942h-221zM108 1378l162 110l175 -328l-108 -68z" />
<glyph unicode="&#xed;" horiz-adv-x="529" d="M89 0l116 942h221l-116 -942h-221zM223 1157l245 331l165 -105l-297 -291z" />
<glyph unicode="&#xee;" horiz-adv-x="529" d="M69 1192l317 296l221 -296l-101 -97l-141 187l-203 -190zM89 0l116 942h221l-116 -942h-221z" />
<glyph unicode="&#xef;" horiz-adv-x="529" d="M73 1272q0 50 34 84q35 35 84 35t85 -37q36 -38 36 -87q0 -48 -35 -83q-34 -34 -84 -34q-49 0 -85 36q-35 38 -35 86zM89 0l116 942h221l-116 -942h-221zM389 1272q0 49 35 84t83 35q50 0 86 -37q36 -38 36 -87t-36 -83q-34 -34 -84 -34q-49 0 -85 36q-35 38 -35 86z" />
<glyph unicode="&#xf0;" horiz-adv-x="1232" d="M93 463q0 255 186 399q142 111 322 111q88 0 158 -29q66 -28 144 -103q-74 311 -243 485l-230 -118l-122 116l217 117q-49 34 -109 66t-133 63l97 128q162 -47 330 -163l229 121l125 -125l-233 -116q303 -326 303 -822q0 -295 -137 -459t-380 -164q-231 0 -378 138 q-146 138 -146 355zM313 466q0 -138 81 -225q82 -87 212 -87q131 0 215 95q84 94 84 242q0 135 -79 214q-78 82 -207 82q-133 0 -220 -91q-86 -92 -86 -230z" />
<glyph unicode="&#xf1;" horiz-adv-x="1128" d="M90 0l116 942h220l-10 -87q131 110 265 110q138 0 221 -77q81 -77 81 -210q0 -72 -12 -172l-63 -506h-220l68 554q4 31 5.5 55t1.5 43q0 128 -138 128q-85 0 -146 -52q-50 -41 -74 -100q-13 -30 -22 -73.5t-16 -100.5l-56 -454h-221zM299 1237q108 175 210 175 q43 0 141 -54q76 -43 101 -43q51 0 98 101l117 -78q-93 -182 -215 -182q-36 0 -67 16l-51 24q-44 21 -48 24l-43 26q-14 8 -33 8q-38 0 -63 -45l-17 -29q-2 -2 -6 -8l-10 -15z" />
<glyph unicode="&#xf2;" horiz-adv-x="1232" d="M92 463q0 219 151 364q152 146 380 146q224 0 365 -138q142 -136 142 -355q0 -216 -150 -363q-149 -147 -368 -147q-229 0 -374 139q-146 140 -146 354zM314 466q0 -140 82 -225q82 -87 212 -87t214 95q85 94 85 242q0 136 -79 215q-79 82 -207 82q-133 0 -220 -91 q-87 -92 -87 -231zM450 1378l162 110l191 -328l-108 -68z" />
<glyph unicode="&#xf3;" horiz-adv-x="1232" d="M92 463q0 219 151 364q152 146 380 146q224 0 365 -138q142 -136 142 -355q0 -216 -150 -363q-149 -147 -368 -147q-229 0 -374 139q-146 140 -146 354zM314 466q0 -140 82 -225q82 -87 212 -87t214 95q85 94 85 242q0 136 -79 215q-79 82 -207 82q-133 0 -220 -91 q-87 -92 -87 -231zM557 1157l268 331l165 -105l-320 -291z" />
<glyph unicode="&#xf4;" horiz-adv-x="1232" d="M92 463q0 219 151 364q152 146 380 146q224 0 365 -138q142 -136 142 -355q0 -216 -150 -363q-149 -147 -368 -147q-229 0 -374 139q-146 140 -146 354zM314 466q0 -140 82 -225q82 -87 212 -87t214 95q85 94 85 242q0 136 -79 215q-79 82 -207 82q-133 0 -220 -91 q-87 -92 -87 -231zM403 1192l332 296l236 -296l-100 -97l-157 187l-218 -190z" />
<glyph unicode="&#xf5;" horiz-adv-x="1232" d="M92 463q0 219 151 364q152 146 380 146q224 0 365 -138q142 -136 142 -355q0 -216 -150 -363q-149 -147 -368 -147q-229 0 -374 139q-146 140 -146 354zM314 466q0 -140 82 -225q82 -87 212 -87t214 95q85 94 85 242q0 136 -79 215q-79 82 -207 82q-133 0 -220 -91 q-87 -92 -87 -231zM369 1237q108 175 210 175q43 0 141 -54q76 -43 101 -43q51 0 98 101l117 -78q-93 -182 -215 -182q-36 0 -67 16l-51 24q-44 21 -48 24l-43 26q-14 8 -33 8q-38 0 -63 -45l-17 -29q-2 -2 -6 -8l-10 -15z" />
<glyph unicode="&#xf6;" horiz-adv-x="1232" d="M92 463q0 219 151 364q152 146 380 146q224 0 365 -138q142 -136 142 -355q0 -216 -150 -363q-149 -147 -368 -147q-229 0 -374 139q-146 140 -146 354zM314 466q0 -140 82 -225q82 -87 212 -87t214 95q85 94 85 242q0 136 -79 215q-79 82 -207 82q-133 0 -220 -91 q-87 -92 -87 -231zM395 1272q0 50 34 84q35 35 84 35t85 -37q36 -38 36 -87q0 -48 -35 -83q-34 -34 -84 -34q-49 0 -85 36q-35 38 -35 86zM755 1272q0 49 35 84t83 35q50 0 86 -37q36 -38 36 -87t-36 -83q-34 -34 -84 -34q-49 0 -85 36q-35 38 -35 86z" />
<glyph unicode="&#xf7;" d="M127 695v185h1072v-185h-1072zM527 440q0 56 37 93q38 38 91 38q58 0 99 -41q42 -41 42 -97q0 -52 -41 -93q-40 -40 -94 -40q-56 0 -95 41q-39 40 -39 99zM532 1143q0 56 36 94q38 38 91 38q59 0 100 -41q42 -41 42 -98q0 -51 -41 -92q-40 -40 -94 -40q-56 0 -95 40 t-39 99z" />
<glyph unicode="&#xf8;" horiz-adv-x="1232" d="M1 53l165 142q-74 131 -74 269q0 219 151 364t381 145q176 0 326 -102l165 143l98 -113l-160 -134l21 -45q55 -123 55 -238q0 -220 -148 -367q-149 -147 -368 -147q-197 0 -349 116l-168 -143zM314 463q0 -65 22 -122l455 393q-65 54 -172 54q-133 0 -219 -92t-86 -233z M417 221q88 -67 190 -67q133 0 216 95t83 248q0 65 -27 118z" />
<glyph unicode="&#xf9;" horiz-adv-x="1121" d="M133 308q0 23 2.5 54t7.5 71l62 509h221l-65 -529q-4 -34 -6 -59.5t-2 -42.5q0 -149 175 -149q95 0 140 49t60 172l69 559h220l-67 -548q-8 -70 -20 -122t-26 -87q-28 -67 -94 -119q-112 -88 -295 -88q-174 0 -278 89q-104 90 -104 241zM400 1378l162 110l191 -328 l-108 -68z" />
<glyph unicode="&#xfa;" horiz-adv-x="1121" d="M133 308q0 23 2.5 54t7.5 71l62 509h221l-65 -529q-4 -34 -6 -59.5t-2 -42.5q0 -149 175 -149q95 0 140 49t60 172l69 559h220l-67 -548q-8 -70 -20 -122t-26 -87q-28 -67 -94 -119q-112 -88 -295 -88q-174 0 -278 89q-104 90 -104 241zM514 1157l268 331l165 -105 l-320 -291z" />
<glyph unicode="&#xfb;" horiz-adv-x="1121" d="M133 308q0 23 2.5 54t7.5 71l62 509h221l-65 -529q-4 -34 -6 -59.5t-2 -42.5q0 -149 175 -149q95 0 140 49t60 172l69 559h220l-67 -548q-8 -70 -20 -122t-26 -87q-28 -67 -94 -119q-112 -88 -295 -88q-174 0 -278 89q-104 90 -104 241zM350 1192l332 296l236 -296 l-100 -97l-157 187l-218 -190z" />
<glyph unicode="&#xfc;" horiz-adv-x="1121" d="M133 308q0 23 2.5 54t7.5 71l62 509h221l-65 -529q-4 -34 -6 -59.5t-2 -42.5q0 -149 175 -149q95 0 140 49t60 172l69 559h220l-67 -548q-8 -70 -20 -122t-26 -87q-28 -67 -94 -119q-112 -88 -295 -88q-174 0 -278 89q-104 90 -104 241zM354 1272q0 50 34 84q35 35 84 35 t85 -37q36 -38 36 -87q0 -48 -35 -83q-34 -34 -84 -34q-49 0 -85 36q-35 38 -35 86zM714 1272q0 49 35 84t83 35q50 0 86 -37q36 -38 36 -87t-36 -83q-34 -34 -84 -34q-49 0 -85 36q-35 38 -35 86z" />
<glyph unicode="&#xfd;" horiz-adv-x="1078" d="M8 -539l379 656l-337 825h236l233 -602l341 602h253l-853 -1481h-252zM482 1157l268 331l165 -105l-320 -291z" />
<glyph unicode="&#xfe;" horiz-adv-x="1254" d="M23 -539l274 2228h221l-104 -846q146 122 301 122q189 0 314 -132q125 -131 125 -330q0 -223 -144 -374q-142 -151 -352 -151q-109 0 -178 34q-74 34 -153 123l-83 -674h-221zM362 441q0 -125 76 -201q76 -78 197 -78q125 0 211 96q86 98 86 236q0 125 -72 205 q-72 81 -184 81q-132 0 -224 -98q-90 -98 -90 -241z" />
<glyph unicode="&#xff;" horiz-adv-x="1078" d="M8 -539l379 656l-337 825h236l233 -602l341 602h253l-853 -1481h-252zM317 1272q0 50 34 84q35 35 84 35t85 -37q36 -38 36 -87q0 -48 -35 -83q-34 -34 -84 -34q-49 0 -85 36q-35 38 -35 86zM677 1272q0 49 35 84t83 35q50 0 86 -37q36 -38 36 -87t-36 -83 q-34 -34 -84 -34q-49 0 -85 36q-35 38 -35 86z" />
<glyph unicode="&#x152;" horiz-adv-x="2433" d="M132 746q0 357 236 593t594 236q196 0 345 -77q147 -77 276 -246l36 292h821l-25 -213h-594l-50 -405h603l-25 -197h-602l-63 -516h602l-26 -213h-831l26 208q-128 -128 -255 -184q-125 -54 -293 -54q-335 0 -555 220t-220 556zM362 743q0 -245 160 -402t408 -157 q256 0 425 172q170 173 170 432q0 256 -159 414q-161 158 -417 158q-250 0 -419 -178q-168 -177 -168 -439z" />
<glyph unicode="&#x153;" horiz-adv-x="2007" d="M92 469q0 220 151 362t387 142q251 0 415 -189q154 189 394 189q216 0 341 -132q124 -130 124 -361l-1 -82h-750q11 -121 80 -182.5t190 -61.5q168 0 247 136l166 -104q-158 -216 -410 -216q-253 0 -401 187q-89 -104 -177 -146q-94 -41 -226 -41q-232 0 -381 140 t-149 359zM314 461q0 -132 86 -221q86 -86 219 -86q136 0 224 91t88 232q0 140 -83 226q-82 85 -220 85q-137 0 -225 -93q-89 -92 -89 -234zM1156 561h520q-14 227 -239 227q-228 0 -281 -227z" />
<glyph unicode="&#x178;" horiz-adv-x="1195" d="M105 1544h246l285 -614l405 614h263l-572 -853l-85 -691h-229l88 707zM421 1859q0 54 36 89t93 35q27 0 49.5 -10t39 -27.5t25.5 -42t9 -52.5q0 -50 -36 -86q-35 -35 -87 -35q-27 0 -51 10t-41 27t-27 41t-10 51zM797 1858q0 53 37 89q37 37 90 37t89 -38q37 -37 37 -92 q0 -51 -37 -88t-89 -37t-90 38q-37 37 -37 91z" />
<glyph unicode="&#x2c6;" horiz-adv-x="1158" d="M375 1192l332 296l236 -296l-100 -97l-157 187l-218 -190z" />
<glyph unicode="&#x2dc;" horiz-adv-x="1158" d="M341 1237q108 175 210 175q43 0 141 -54q76 -43 101 -43q51 0 98 101l117 -78q-93 -182 -215 -182q-36 0 -67 16l-51 24q-44 21 -48 24l-43 26q-14 8 -33 8q-38 0 -63 -45l-17 -29q-2 -2 -6 -8l-10 -15z" />
<glyph unicode="&#x2000;" horiz-adv-x="1063" />
<glyph unicode="&#x2001;" horiz-adv-x="2126" />
<glyph unicode="&#x2002;" horiz-adv-x="1063" />
<glyph unicode="&#x2003;" horiz-adv-x="2126" />
<glyph unicode="&#x2004;" horiz-adv-x="708" />
<glyph unicode="&#x2005;" horiz-adv-x="531" />
<glyph unicode="&#x2006;" horiz-adv-x="354" />
<glyph unicode="&#x2007;" horiz-adv-x="354" />
<glyph unicode="&#x2008;" horiz-adv-x="265" />
<glyph unicode="&#x2009;" horiz-adv-x="425" />
<glyph unicode="&#x200a;" horiz-adv-x="118" />
<glyph unicode="&#x2010;" horiz-adv-x="432" d="M-15 399l20 175h433l-22 -175h-431z" />
<glyph unicode="&#x2011;" horiz-adv-x="432" d="M-15 399l20 175h433l-22 -175h-431z" />
<glyph unicode="&#x2012;" horiz-adv-x="432" d="M-15 399l20 175h433l-22 -175h-431z" />
<glyph unicode="&#x2013;" horiz-adv-x="1313" d="M114 399l21 175h1053l-22 -175h-1052z" />
<glyph unicode="&#x2014;" horiz-adv-x="1299" d="M-15 399l20 175h1300l-22 -175h-1298z" />
<glyph unicode="&#x2018;" horiz-adv-x="630" d="M187 1045l317 530l122 -67l-285 -549z" />
<glyph unicode="&#x2019;" horiz-adv-x="630" d="M185 1026l285 549l154 -85l-316 -531z" />
<glyph unicode="&#x201a;" horiz-adv-x="630" d="M-4 -270l284 548l154 -85l-316 -530z" />
<glyph unicode="&#x201c;" horiz-adv-x="1012" d="M187 1045l317 530l122 -67l-285 -549zM569 1045l317 530l123 -67l-285 -549z" />
<glyph unicode="&#x201d;" horiz-adv-x="1012" d="M185 1026l285 549l154 -85l-316 -531zM567 1026l286 549l154 -85l-317 -531z" />
<glyph unicode="&#x201e;" horiz-adv-x="1012" d="M-4 -270l284 548l154 -85l-316 -530zM377 -270l286 548l154 -85l-317 -530z" />
<glyph unicode="&#x2022;" horiz-adv-x="1544" d="M482 787q0 136 94 230q95 95 229 95q128 0 220 -96q93 -95 93 -228q0 -136 -93 -230q-93 -95 -225 -95q-130 0 -225 95q-93 96 -93 229z" />
<glyph unicode="&#x2026;" horiz-adv-x="1713" d="M97 116q0 56 36 94q38 38 91 38q59 0 100 -41q42 -41 42 -98q0 -53 -41 -92t-95 -39q-55 0 -94 40t-39 98zM673 116q0 56 36 94q38 38 91 38q58 0 99 -41q42 -41 42 -98q0 -53 -41 -92t-94 -39q-55 0 -94 40t-39 98zM1249 116q0 56 36 94q38 38 91 38q58 0 99 -41 q42 -41 42 -98q0 -53 -41 -92t-94 -39q-55 0 -94 40t-39 98z" />
<glyph unicode="&#x202f;" horiz-adv-x="425" />
<glyph unicode="&#x2039;" horiz-adv-x="596" d="M72 486l364 448l106 -91l-300 -363l210 -347l-117 -72z" />
<glyph unicode="&#x203a;" horiz-adv-x="596" d="M44 130l300 363l-211 347l118 72l263 -426l-364 -447z" />
<glyph unicode="&#x205f;" horiz-adv-x="531" />
<glyph unicode="&#x20ac;" d="M235 659v7h672l-20 -163h-384q28 -78 87 -146q143 -167 378 -167l-27 -218q-330 0 -535 231q-171 193 -171 456zM258 861q55 236 243 430q274 283 637 283l-27 -220q-235 0 -420 -170q-79 -73 -130 -160h391l-21 -163h-673z" />
<glyph unicode="&#x2122;" horiz-adv-x="1760" d="M100 1396l18 148h602l-18 -148h-212l-91 -732h-168l91 732h-222zM637 664l332 972l246 -705l423 726l93 -993h-163l-44 508l-346 -589l-201 589l-167 -508h-173z" />
<glyph unicode="&#x25fc;" horiz-adv-x="940" d="M0 0v940h940v-940h-940z" />
</font>
</defs>
</svg>
