<?xml version="1.0" encoding="utf-8"?>
<!-- Generator: Adobe Illustrator 16.0.0, SVG Export Plug-In . SVG Version: 6.00 Build 0)  -->
<!DOCTYPE svg PUBLIC "-//W3C//DTD SVG 1.1//EN" "http://www.w3.org/Graphics/SVG/1.1/DTD/svg11.dtd">
<svg version="1.1" xmlns="http://www.w3.org/2000/svg" xmlns:xlink="http://www.w3.org/1999/xlink" x="0px" y="0px" width="211px"
	 height="210.5px" viewBox="0 0 211 210.5" enable-background="new 0 0 211 210.5" xml:space="preserve">
<g id="Calque_1" display="none">
	<rect display="inline" fill="none" stroke="#FFFFFF" stroke-miterlimit="10" width="211" height="210.5"/>
</g>
<g id="Calque_2">
	<g>
		<g>
			<path fill="#FFFFFF" d="M80.939,99.631c0.333-1.139-0.319-2.331-1.459-2.665c-1.136-0.339-2.331,0.319-2.667,1.456
				c-1.596,5.45-6.685,9.257-12.371,9.257c-7.109,0-12.892-5.781-12.892-12.891c0-6.12,4.349-11.433,10.34-12.635
				c0.712-0.144,1.301-0.634,1.571-1.306s0.186-1.435-0.232-2.03c-2.017-2.896-3.085-6.288-3.085-9.809
				c0-9.478,7.711-17.188,17.187-17.188c5.738,0,11.075,2.846,14.281,7.615c0.659,0.982,1.994,1.247,2.98,0.586
				c0.982-0.663,1.245-1.997,0.586-2.981c-4.004-5.96-10.676-9.518-17.846-9.518c-11.847,0-21.485,9.639-21.485,21.485
				c0,3.423,0.808,6.751,2.355,9.764c-6.488,2.53-10.948,8.86-10.948,16.016c0,9.478,7.711,17.188,17.188,17.188
				C72.023,111.976,78.811,106.899,80.939,99.631L80.939,99.631z M80.939,99.631"/>
			<path fill="#FFFFFF" d="M94.167,116.303c-1.172,0.192-1.962,1.302-1.766,2.471c0.019,0.128,2.118,12.905,2.118,27.576
				c0,8.39-2.804,12.213-4.855,13.888c-1.84-5.107-7.851-7.442-12.331-7.442c-3.883,0-7.552,1.8-9.982,4.804
				c-0.923-0.336-1.905-0.508-2.908-0.508c-4.739,0-8.593,3.854-8.593,8.595c0,1.185,0.96,2.147,2.147,2.147
				c1.188,0,2.148-0.963,2.148-2.147c0-2.371,1.927-4.298,4.297-4.298c0.864,0,1.697,0.256,2.408,0.738
				c0.494,0.336,1.108,0.453,1.687,0.318c0.584-0.133,1.085-0.503,1.384-1.018c1.563-2.716,4.335-4.336,7.412-4.336
				c2.692,0,8.593,1.623,8.593,6.445c0,0.661,0.305,1.287,0.827,1.693c0.522,0.407,1.201,0.549,1.841,0.391
				c0.418-0.105,10.223-2.746,10.223-19.271c0-15.044-2.09-27.75-2.179-28.284C96.443,116.897,95.337,116.11,94.167,116.303
				L94.167,116.303z M94.167,116.303"/>
			<path fill="#FFFFFF" d="M92.611,47.919c4.366-3.068,9.483-4.691,14.798-4.691c5.315,0,10.433,1.623,14.799,4.691
				c0.373,0.265,0.807,0.392,1.232,0.392c0.675,0,1.341-0.318,1.759-0.914c0.684-0.971,0.45-2.311-0.521-2.991
				c-5.092-3.581-11.065-5.475-17.27-5.475s-12.177,1.894-17.269,5.475c-0.971,0.681-1.205,2.021-0.522,2.991
				C90.305,48.365,91.641,48.603,92.611,47.919L92.611,47.919z M92.611,47.919"/>
			<path fill="#FFFFFF" d="M105.5,100.25c-2.965,5.762-8.819,9.339-15.277,9.339c-2.686,0-5.257-0.608-7.645-1.805
				c-1.06-0.53-2.351-0.103-2.881,0.957c-0.532,1.062-0.105,2.352,0.956,2.884c2.991,1.5,6.207,2.261,9.569,2.261
				c6.854,0,13.169-3.228,17.187-8.609c4.018,5.382,10.332,8.609,17.187,8.609c3.356,0,6.572-0.759,9.557-2.254
				c1.059-0.53,1.491-1.821,0.958-2.881c-0.532-1.062-1.815-1.495-2.883-0.96c-2.383,1.192-4.95,1.798-7.632,1.798
				c-6.457,0-12.312-3.577-15.276-9.339C108.584,98.821,106.233,98.821,105.5,100.25L105.5,100.25z M105.5,100.25"/>
			<path fill="#FFFFFF" d="M156.616,78.772c1.546-3.012,2.354-6.339,2.354-9.764c0-11.847-9.638-21.484-21.483-21.484
				c-7.214,0-13.911,3.593-17.908,9.61c-0.657,0.988-0.39,2.321,0.6,2.978c0.992,0.654,2.323,0.389,2.979-0.601
				c3.199-4.816,8.556-7.69,14.329-7.69c9.478,0,17.188,7.71,17.188,17.188c0,3.521-1.067,6.913-3.087,9.81
				c-0.415,0.595-0.501,1.357-0.229,2.029c0.27,0.672,0.859,1.163,1.571,1.307c5.99,1.201,10.339,6.514,10.339,12.635
				c0,7.109-5.781,12.89-12.891,12.89c-5.715,0-10.673-3.669-12.334-9.133c-0.346-1.135-1.542-1.778-2.681-1.428
				c-1.137,0.344-1.775,1.544-1.431,2.679c2.216,7.285,8.825,12.179,16.445,12.179c9.478,0,17.187-7.71,17.187-17.188
				C167.563,87.633,163.104,81.303,156.616,78.772L156.616,78.772z M156.616,78.772"/>
			<path fill="#FFFFFF" d="M107.409,111.976c-1.188,0-2.147,0.962-2.147,2.148v47.265c0,1.186,0.96,2.147,2.147,2.147
				c1.188,0,2.148-0.962,2.148-2.147v-47.265C109.558,112.938,108.598,111.976,107.409,111.976L107.409,111.976z M107.409,111.976"
				/>
			<path fill="#FFFFFF" d="M150.377,157.091c-1.003,0-1.985,0.172-2.91,0.508c-2.429-3.003-6.099-4.804-9.98-4.804
				c-4.483,0-10.501,2.337-12.336,7.453c-2.049-1.666-4.851-5.482-4.851-13.898c0-14.671,2.1-27.448,2.118-27.576
				c0.195-1.169-0.596-2.278-1.766-2.471c-1.173-0.193-2.276,0.595-2.471,1.764c-0.088,0.535-2.179,13.239-2.179,28.283
				c0,16.525,9.804,19.166,10.222,19.271c0.644,0.16,1.322,0.02,1.842-0.391c0.522-0.406,0.827-1.032,0.827-1.693
				c0-4.822,5.902-6.445,8.593-6.445c3.077,0,5.848,1.62,7.413,4.336c0.299,0.515,0.799,0.885,1.383,1.018
				c0.58,0.137,1.192,0.018,1.687-0.317c0.712-0.482,1.544-0.738,2.408-0.738c2.37,0,4.297,1.926,4.297,4.297
				c0,1.186,0.961,2.148,2.148,2.148c1.187,0,2.148-0.963,2.148-2.148C158.97,160.946,155.116,157.091,150.377,157.091
				L150.377,157.091z M150.377,157.091"/>
		</g>
		<g>
			<path fill="#FFFFFF" d="M105.5,208.948c-57.179,0-103.698-46.519-103.698-103.698S48.321,1.552,105.5,1.552
				S209.198,48.071,209.198,105.25S162.679,208.948,105.5,208.948z M105.5,7.052c-54.146,0-98.198,44.052-98.198,98.198
				s44.052,98.198,98.198,98.198s98.198-44.052,98.198-98.198S159.646,7.052,105.5,7.052z"/>
		</g>
	</g>
</g>
</svg>
