<?xml version="1.0" encoding="utf-8"?>
<!-- Generator: Adobe Illustrator 16.0.0, SVG Export Plug-In . SVG Version: 6.00 Build 0)  -->
<!DOCTYPE svg PUBLIC "-//W3C//DTD SVG 1.1//EN" "http://www.w3.org/Graphics/SVG/1.1/DTD/svg11.dtd">
<svg version="1.1" id="Calque_1" xmlns="http://www.w3.org/2000/svg" xmlns:xlink="http://www.w3.org/1999/xlink" x="0px" y="0px"
	 width="116.295px" height="22.835px" viewBox="0 0 116.295 22.835" enable-background="new 0 0 116.295 22.835"
	 xml:space="preserve">
<g>
	<path fill="#FFFFFF" d="M10.91,0.003v3.533H8.957c0,0-1.766-0.254-1.766,1.449v2.775h3.719l-0.441,3.834H7.191v10.734H2.9V11.546H0
		V7.761h3.027V4.544c0,0-0.379-1.766,1.197-3.215c1.578-1.451,3.66-1.326,3.66-1.326H10.91z"/>
	<path fill="#FFFFFF" d="M21.252,7.825v1.924c-1.094-1.441-2.625-2.334-4.318-2.334c-3.326,0-6.023,2.932-6.023,7.709
		c0,4.746,2.697,7.711,6.023,7.711c1.711,0,3.252-0.912,4.35-2.377l-0.029,1.871h4.133V7.825H21.252z M21.021,16.56
		c0,1.463-1.244,2.838-2.777,2.838s-2.777-1.375-2.777-2.838v-2.775c0-1.463,1.244-2.838,2.777-2.838s2.777,1.375,2.777,2.838V16.56
		z"/>
	<path fill="#FFFFFF" d="M59.129,22.425v-1.926c1.094,1.441,2.625,2.336,4.318,2.336c3.326,0,6.021-2.934,6.021-7.711
		c0-4.744-2.695-7.709-6.021-7.709c-1.709,0-3.254,0.91-4.35,2.375l0.029-9.58L54.83,0.692v21.666L59.129,22.425z M59.359,13.69
		c0-1.463,1.244-2.84,2.779-2.84c1.533,0,2.777,1.377,2.777,2.84v2.775c0,1.461-1.244,2.836-2.777,2.836
		c-1.535,0-2.779-1.375-2.779-2.836V13.69z"/>
	<path fill="#FFFFFF" d="M34.721,19.315c0,0-3.313,0.191-3.313-4.1v-0.232c0-4.289,3.313-4.102,3.313-4.102
		c2.236-0.031,3.025,0.758,3.025,0.758l1.041-3.121c-1.797-1.326-7.221-1.547-9.648,0.693c-2.102,1.938-2.102,5.076-2.063,5.887
		c-0.039,0.811-0.039,3.951,2.063,5.889c2.428,2.238,7.852,2.018,9.648,0.695l-1.041-3.123
		C37.746,18.56,36.957,19.347,34.721,19.315"/>
	<path fill="#FFFFFF" d="M53.041,16.653c0,0,1.734-9.082-6.559-9.131c-8.295-0.049-7.098,8.217-7.098,8.217
		c0.191,5.014,2.492,6.465,6.436,6.938c3.941,0.473,6.936-1.041,6.936-1.041l-0.914-2.932c0,0-3.184,0.977-5.707,0.756
		c-2.521-0.221-2.334-2.807-2.334-2.807H53.041z M43.738,13.72c0,0-0.221-3.215,2.68-3.215S49.1,13.72,49.1,13.72H43.738z"/>
	<path fill="#FFFFFF" d="M78.016,7.612c-5.398,0-7.217,3.256-7.217,7.611c0,4.619,2.342,7.611,7.217,7.611
		c3.986,0,7.215-2.678,7.215-7.611C85.23,11.019,83.168,7.612,78.016,7.612 M80.828,16.483c0,1.463-1.275,2.838-2.85,2.838
		s-2.85-1.375-2.85-2.838v-2.775c0-1.463,1.275-2.84,2.85-2.84s2.85,1.377,2.85,2.84V16.483z"/>
	<path fill="#FFFFFF" d="M93.949,7.612c-5.398,0-7.215,3.256-7.215,7.611c0,4.619,2.34,7.611,7.215,7.611
		c3.984,0,7.217-2.678,7.217-7.611C101.166,11.019,99.104,7.612,93.949,7.612 M96.764,16.483c0,1.463-1.277,2.838-2.852,2.838
		s-2.85-1.375-2.85-2.838v-2.775c0-1.463,1.275-2.84,2.85-2.84s2.852,1.377,2.852,2.84V16.483z"/>
	<polygon fill="#FFFFFF" points="116.295,22.394 111.578,15.091 116.086,7.786 111.473,7.786 107.07,14.325 107.07,0.136 
		102.738,0.589 102.738,22.394 107.07,22.394 107.07,14.962 111.824,22.394 	"/>
</g>
</svg>
