<?xml version="1.0" encoding="utf-8"?>
<!-- Generator: Adobe Illustrator 16.0.0, SVG Export Plug-In . SVG Version: 6.00 Build 0)  -->
<!DOCTYPE svg PUBLIC "-//W3C//DTD SVG 1.1//EN" "http://www.w3.org/Graphics/SVG/1.1/DTD/svg11.dtd">
<svg version="1.1" xmlns="http://www.w3.org/2000/svg" xmlns:xlink="http://www.w3.org/1999/xlink" x="0px" y="0px" width="211px"
	 height="210.5px" viewBox="0 0 211 210.5" enable-background="new 0 0 211 210.5" xml:space="preserve">
<g id="Calque_1" display="none">
	<rect display="inline" fill="none" stroke="#FFFFFF" stroke-miterlimit="10" width="211" height="210.5"/>
</g>
<g id="Calque_2">
	<g>
		<path fill="#FFFFFF" d="M157.831,110.406c-0.045-2.462-0.077-4.243-0.077-5.138c0-7.436-1.894-49.855-2.109-54.668
			c-0.151-3.377-0.282-6.295-2.347-8.144c-1.501-1.347-3.625-1.825-7.103-1.601c-5.646,0.364-15.688,1.658-24.548,2.799
			c-2.927,0.378-5.787,0.746-8.263,1.049c-0.024,0.003-0.047,0.007-0.071,0.01c-3.56,0.437-6.306,0.739-7.274,0.739h-1.077
			c-1.646,0-8.426-0.873-15.603-1.798c-8.8-1.133-18.772-2.417-24.439-2.791c-2.627-0.176-5.314-0.104-7.183,1.566
			c-1.741,1.558-2.19,3.935-2.33,7.026c-0.087,1.96-2.159,48.074-2.159,55.812c0,0.894-0.034,2.674-0.079,5.138
			c-0.223,12.428-0.69,38.284,0.96,49.649c0.991,6.83,3.75,9.646,9.677,9.646c0.493,0,1.009-0.02,1.548-0.058
			c4.443-0.317,11.271-1.139,18.104-2.005c0.013-0.002,0.024-0.004,0.036-0.005c1.974-0.251,3.946-0.506,5.863-0.753
			c7.177-0.924,13.956-1.797,15.604-1.797h1.077c1.647,0,8.428,0.873,15.604,1.797c8.307,1.07,17.723,2.283,23.507,2.727
			c7.453,0.567,10.629-2.021,11.723-9.561C158.52,148.68,158.054,122.83,157.831,110.406L157.831,110.406z M152.552,159.421
			c-0.77,5.302-1.893,6.229-7.07,5.832c-5.672-0.434-15.026-1.638-23.28-2.701c-8.827-1.138-14.329-1.833-16.163-1.833h-1.077
			c-0.429,0-1.055,0.037-1.876,0.109c1.625-0.683,3.111-1.327,4.438-1.9c2.646-1.146,5.383-2.333,6.128-2.422
			c1.188-0.021,2.144-0.99,2.144-2.184c0-1.206-0.977-2.182-2.184-2.182c-1.351,0-3.257,0.802-7.824,2.78
			c-5.461,2.366-13.701,5.938-23.002,8.401c-6.733,0.854-13.431,1.658-17.743,1.968c-4.672,0.333-5.846-0.708-6.593-5.862
			c-1.599-11.013-1.119-37.591-0.914-48.942c0.045-2.487,0.077-4.282,0.077-5.217c0-7.64,2.068-53.659,2.156-55.613
			c0.063-1.424,0.225-3.386,0.879-3.971c0.383-0.343,1.253-0.516,2.594-0.516c0.418,0,0.881,0.017,1.39,0.05
			c5.532,0.367,15.433,1.642,24.169,2.768c4.315,0.556,7.838,1.007,10.523,1.321c-3.874,1.519-7.244,3.017-9.941,4.217
			c-2.526,1.124-5.14,2.286-5.866,2.38c-1.186,0.021-2.143,0.99-2.143,2.182c0,1.206,0.979,2.184,2.185,2.184
			c1.35,0,3.192-0.796,7.598-2.755c5.387-2.396,13.511-6.01,22.874-8.49c2.29-0.283,5.021-0.634,8.176-1.038
			c8.795-1.134,18.764-2.417,24.271-2.773c2.586-0.168,3.553,0.177,3.907,0.493c0.698,0.626,0.798,2.896,0.897,5.088v0.002
			c0.781,17.426,2.105,48.511,2.105,54.473c0,0.934,0.032,2.729,0.076,5.217C153.669,121.832,154.15,148.404,152.552,159.421
			L152.552,159.421z M123.587,82.162c-1.014-0.65-2.365-0.356-3.017,0.658c-0.651,1.014-0.357,2.364,0.658,3.017
			c2.667,1.712,4.991,3.804,6.924,6.181l-11.752,11.752V78.675c0-1.206-0.978-2.184-2.184-2.184c-1.204,0-2.182,0.978-2.182,2.184
			v15.959c-1.056-1.699-2.548-3.124-4.354-4.091V69.374c0-1.205-0.978-2.184-2.183-2.184c-1.206,0-2.183,0.979-2.183,2.184v21.169
			c-1.574,0.844-2.912,2.035-3.927,3.453V78.675c0-1.206-0.978-2.184-2.186-2.184c-1.205,0-2.182,0.978-2.182,2.184v28.111
			c-2.322-0.455-4.786-0.201-7.025,0.829c-0.473,0.217-0.852,0.598-1.07,1.072c-1.999,4.346-1.076,9.53,2.294,12.901l4.682,4.682
			l-6.761,6.758c-6.586-5.35-10.8-13.512-10.8-22.637c0-9.979,5.02-19.158,13.428-24.555c1.014-0.652,1.31-2.003,0.657-3.017
			c-0.652-1.015-2.002-1.311-3.017-0.658c-9.665,6.204-15.436,16.757-15.436,28.229c0,11.156,5.479,21.058,13.887,27.155
			c0.131,0.117,0.272,0.218,0.419,0.298c5.445,3.824,12.074,6.069,19.219,6.069c18.484,0,33.521-15.039,33.521-33.522
			C139.023,98.919,133.253,88.367,123.587,82.162L123.587,82.162z M101.607,100.648c0-2.673,1.535-5.119,3.893-6.318
			c2.356,1.199,3.892,3.646,3.892,6.318v8.739c0,0.529-0.06,1.056-0.176,1.568l-3.634,3.634l-3.842-3.845
			c-0.088-0.445-0.133-0.9-0.133-1.357V100.648z M92.309,118.502c-1.89-1.89-2.534-4.706-1.715-7.222
			c2.517-0.817,5.33-0.173,7.221,1.717l0.372,0.371c0.018,0.02,0.037,0.038,0.056,0.058l4.251,4.252l-5.503,5.504L92.309,118.502z
			 M134.656,110.39c0,16.078-13.078,29.158-29.156,29.158c-5.362,0-10.389-1.454-14.71-3.99l6.392-6.393
			c2.189,1.357,5.104,2.108,8.318,2.108c4.19,0,7.871-1.277,10.1-3.506l6.178-6.179c2.633-2.632,3.816-6.407,3.169-10.097
			c-0.208-1.188-1.34-1.983-2.527-1.774c-1.188,0.209-1.981,1.341-1.773,2.528c0.403,2.29-0.328,4.63-1.955,6.254l-6.18,6.181
			c-1.374,1.373-4.06,2.228-7.011,2.228c-1.899,0-3.688-0.354-5.088-0.972l30.271-30.271
			C133.251,100.056,134.656,105.111,134.656,110.39L134.656,110.39z M134.656,110.39"/>
		<g>
			<path fill="#FFFFFF" d="M105.5,208.948c-57.18,0-103.698-46.519-103.698-103.698S48.321,1.552,105.5,1.552
				c57.179,0,103.697,46.519,103.697,103.698S162.679,208.948,105.5,208.948z M105.5,7.052c-54.146,0-98.198,44.052-98.198,98.198
				s44.052,98.198,98.198,98.198s98.197-44.052,98.197-98.198S159.647,7.052,105.5,7.052z"/>
		</g>
	</g>
</g>
</svg>
