<?xml version="1.0" encoding="utf-8"?>
<!-- Generator: Adobe Illustrator 16.0.0, SVG Export Plug-In . SVG Version: 6.00 Build 0)  -->
<!DOCTYPE svg PUBLIC "-//W3C//DTD SVG 1.1//EN" "http://www.w3.org/Graphics/SVG/1.1/DTD/svg11.dtd">
<svg version="1.1" id="Calque_1" xmlns="http://www.w3.org/2000/svg" xmlns:xlink="http://www.w3.org/1999/xlink" x="0px" y="0px"
	 width="100px" height="88.888px" viewBox="0 0 100 88.888" enable-background="new 0 0 100 88.888" xml:space="preserve">
<g>
	<path fill="#FFFFFF" d="M7.701,86.4H37.4c2.697,0,4.886-2.188,4.886-4.882v-29.7c0-2.698-2.189-4.886-4.886-4.886H23.183
		c0.19-7.774,1.996-13.998,5.414-18.675c2.698-3.694,6.781-6.752,12.243-9.167c2.509-1.1,3.593-4.073,2.423-6.555l-3.519-7.423
		c-1.133-2.386-3.939-3.43-6.357-2.386c-6.469,2.794-11.932,6.332-16.383,10.631c-5.433,5.246-9.155,11.165-11.169,17.772
		c-2.01,6.603-3.017,15.61-3.017,27.039v23.35C2.818,84.212,5.006,86.4,7.701,86.4L7.701,86.4z M7.701,86.4"/>
	<path fill="#FFFFFF" d="M87.71,2.749c-6.387,2.783-11.819,6.317-16.3,10.609c-5.484,5.246-9.223,11.146-11.236,17.702
		c-2.014,6.554-3.021,15.591-3.021,27.109v23.35c0,2.694,2.188,4.882,4.886,4.882h29.7c2.694,0,4.886-2.188,4.886-4.882v-29.7
		c0-2.698-2.192-4.886-4.886-4.886H77.522c0.186-7.774,1.992-13.998,5.414-18.675c2.694-3.694,6.778-6.752,12.24-9.167
		c2.511-1.1,3.597-4.073,2.422-6.555L94.09,5.131C92.961,2.749,90.133,1.693,87.71,2.749L87.71,2.749z M87.71,2.749"/>
</g>
</svg>
