<?xml version="1.0" encoding="utf-8"?>
<!-- Generator: Adobe Illustrator 16.0.0, SVG Export Plug-In . SVG Version: 6.00 Build 0)  -->
<!DOCTYPE svg PUBLIC "-//W3C//DTD SVG 1.1//EN" "http://www.w3.org/Graphics/SVG/1.1/DTD/svg11.dtd">
<svg version="1.1" id="Calque_1" xmlns="http://www.w3.org/2000/svg" xmlns:xlink="http://www.w3.org/1999/xlink" x="0px" y="0px"
	 width="118.092px" height="26.563px" viewBox="0 0 118.092 26.563" enable-background="new 0 0 118.092 26.563"
	 xml:space="preserve">
<g>
	<path fill="#FFFFFF" d="M27.115,10.531c1.281,0,2.51-1.066,2.725-2.383c0.252-1.28-0.615-2.347-1.896-2.347
		s-2.51,1.066-2.729,2.347C24.967,9.465,25.799,10.531,27.115,10.531z"/>
	<path fill="#FFFFFF" d="M114.07,14.34c0,0,2.813,0,2.867,0c0.393,0,0.623-0.16,0.711-0.526c0.127-0.528,0.357-1.448,0.424-1.7
		c0.086-0.33-0.107-0.58-0.473-0.58c-0.088,0-1.436,0-2.828,0c0.203-0.811,0.996-3.443,0.996-5.158c0-3.427-2.91-6.342-7.037-6.342
		c-4.662,0-7.697,3.13-7.697,7.532c0,1.284,0.48,2.781,1.074,3.71c-0.248-0.014-0.504-0.021-0.768-0.021
		c-3.543,0-5.775,1.922-5.775,4.719c0,2.625,2.07,3.645,4.018,4.322c1.73,0.603,3.324,0.884,3.324,2.236
		c0,0.911-0.877,1.445-2.594,1.445c-2.035,0-3.154-0.959-3.439-1.321c0.193-0.152,0.48-0.514,0.48-1.114
		c0-0.841-0.59-1.527-1.688-1.527c-0.93,0-1.713,0.757-1.91,1.754c-1.49,1.22-3.119,2.01-5.426,2.01
		c-2.271,0-3.451-1.183-3.451-3.697c0.531,0.162,1.92,0.357,2.836,0.357c3.848,0,6.471-1.748,6.471-5.25
		c0-1.882-1.654-3.859-4.924-3.859h-0.008c-4.299,0-6.709,2.725-7.76,5.721c-0.295-0.071-0.59-0.141-0.885-0.206
		c0.234-0.665,0.404-1.436,0.404-2.289c0-1.48-0.918-3.226-3.369-3.226c-1.709,0-3.328,1.119-4.451,2.797
		c0.277-1.095,0.463-1.822,0.475-1.872c0.074-0.286-0.045-0.604-0.49-0.604c-0.574,0-2.518,0-2.518,0
		c-0.359,0-0.611,0.126-0.715,0.535c-0.068,0.272-0.932,3.666-1.775,6.969c-0.529,2.06-3.271,4.625-6.721,4.625
		c-2.271,0-3.451-1.26-3.451-3.775c0.596,0.237,1.92,0.436,2.836,0.436c4.006,0,6.471-1.748,6.471-5.25
		c0-1.882-1.652-3.859-4.922-3.859h-0.008c-4.842,0-7.809,3.762-8.311,8.025c-0.211,1.773-1.705,4.208-3.328,4.208
		c-0.789,0-1.23-0.497-1.23-1.34c0-0.728,0.512-2.507,1.074-4.737c0.188-0.745,0.473-1.883,0.789-3.145c1.43,0,2.578,0,2.633,0
		c0.393,0,0.621-0.16,0.711-0.526c0.125-0.528,0.357-1.448,0.422-1.7c0.086-0.33-0.105-0.58-0.473-0.58c-0.086,0-2.588,0-2.588,0
		s1.191-4.756,1.221-4.877c0.113-0.484-0.291-0.763-0.715-0.674c0,0-2,0.391-2.371,0.469c-0.373,0.075-0.662,0.28-0.797,0.818
		c-0.018,0.068-1.061,4.264-1.061,4.264s-2.031,0-2.078,0c-0.393,0-0.623,0.16-0.711,0.525c-0.127,0.527-0.359,1.449-0.422,1.701
		c-0.086,0.33,0.105,0.58,0.473,0.58c0.074,0,0.93,0,2.037,0c-0.014,0.058-0.734,2.805-1.318,5.263
		c-0.275,1.184-1.195,3.948-2.703,3.948c-0.9,0-1.281-0.453-1.281-1.428c0-1.533,1.51-5.374,1.51-7.116
		c0-2.328-1.248-3.677-3.807-3.677c-1.613,0-3.285,1.041-3.994,1.955c0,0,0.215-0.748,0.289-1.035
		c0.078-0.304-0.086-0.603-0.482-0.603c-0.572,0-1.959,0-2.502,0c-0.533,0-0.68,0.284-0.758,0.597
		c-0.031,0.127-0.932,3.666-1.797,7.063c-0.594,2.327-2.031,4.271-3.568,4.271c-0.791,0-1.143-0.497-1.143-1.34
		c0-0.728,0.471-2.524,1.031-4.755c0.684-2.715,1.287-4.949,1.35-5.211c0.084-0.335-0.064-0.626-0.496-0.626
		c-0.541,0-1.945,0-2.518,0c-0.455,0-0.617,0.239-0.715,0.571c0,0-0.707,2.682-1.457,5.666c-0.545,2.166-1.146,4.372-1.146,5.409
		c0,1.85,0.83,3.244,3.115,3.244c1.762,0,3.156-0.894,4.223-2.032c-0.158,0.617-0.258,1.007-0.268,1.047
		c-0.092,0.352,0.02,0.664,0.436,0.664c0.57,0,2.01,0,2.574,0c0.447,0,0.621-0.181,0.713-0.571c0.092-0.374,2.016-7.938,2.016-7.938
		c0.508-2.032,1.766-3.379,3.533-3.379c0.84,0,1.566,0.557,1.48,1.636c-0.094,1.188-1.525,5.453-1.525,7.325
		c0,1.418,0.525,3.251,3.193,3.251c1.818,0,3.156-0.872,4.131-1.997c0.355,1.193,1.301,1.997,3.033,1.997
		c2.877,0,4.613-1.708,5.633-3.422c0.844,1.992,2.826,3.421,5.732,3.421c2.961,0,5.252-1.249,6.875-2.946
		c-0.291,1.146-0.49,1.922-0.506,1.987c-0.092,0.357,0.063,0.639,0.484,0.639c0.559,0,2.305,0,2.547,0
		c0.35,0,0.598-0.177,0.689-0.544c0.045-0.181,0.412-1.604,0.934-3.625c0.994-3.87,2.594-7.885,4.994-7.885
		c0.848,0,1.195,0.473,1.195,1.22c0,0.352-0.104,0.656-0.189,0.818c-1.166-0.23-2.104,0.344-2.104,1.588
		c0,0.81,0.854,1.546,2.004,1.546c0.879,0,1.605-0.215,2.186-0.606c0.541,0.111,1.123,0.238,1.707,0.373
		c-0.088,0.581-0.133,1.153-0.133,1.695c0,3.105,2.217,5.74,6.193,5.74c3.113,0,5.252-1.14,7.098-2.6
		c0.889,1.451,3.127,2.623,6.064,2.623c4.029,0,6.313-2.094,6.313-4.862c0-2.505-2.057-3.428-4.178-4.194
		c-1.723-0.623-3.162-0.962-3.162-2.181c0-0.998,0.787-1.456,2.135-1.456c0.873,0,1.529,0.188,1.881,0.287
		c0.348,0.869,1.066,1.834,2.295,1.834c1.039,0,1.506-0.822,1.506-1.579c0-2.154-3.59-2.38-3.59-7.001
		c0-2.873,1.627-5.244,4.994-5.244c2.34,0,3.867,1.483,3.867,3.878c0,1.975-1.197,5.489-1.197,5.489s-1.988,0-2.035,0
		c-0.391,0-0.621,0.16-0.709,0.525c-0.129,0.527-0.359,1.449-0.426,1.701c-0.084,0.33,0.107,0.58,0.475,0.58
		c0.074,0,1.986,0,1.986,0s-2.053,7.576-2.053,8.954c0,1.85,1.041,3.243,3.326,3.243c3.23,0,5.25-2.1,6.129-5.152
		c0.068-0.237-0.066-0.429-0.305-0.429c-0.414,0-1.043,0-1.232,0c-0.246,0-0.389,0.141-0.451,0.381
		c-0.279,1.084-0.969,2.225-2.328,2.225c-0.789,0-1.23-0.497-1.23-1.34c0-0.728,0.482-2.432,1.074-4.737
		C113.568,16.387,114.07,14.34,114.07,14.34z M88.594,14.21c1.143,0,1.684,0.761,1.684,1.666c0,1.532-1.188,2.467-3.047,2.467
		c-0.664,0-1.594-0.157-2.143-0.341C85.318,16.594,86.338,14.21,88.594,14.21z M61.713,14.21c1.25,0,1.686,0.761,1.686,1.666
		c0,1.532-1.189,2.467-3.047,2.467c-0.664,0-1.596-0.157-2.145-0.341C58.438,16.594,59.342,14.21,61.713,14.21z"/>
	<path fill="#FFFFFF" d="M12.264,0C4.111,0,0,5.847,0,10.721c0,2.952,1.117,5.577,3.514,6.557c0.393,0.161,0.746,0.006,0.859-0.43
		c0.08-0.301,0.268-1.061,0.352-1.377c0.115-0.431,0.07-0.581-0.248-0.957c-0.691-0.815-1.133-1.87-1.133-3.365
		c0-4.336,3.246-8.22,8.449-8.22c4.609,0,7.143,2.817,7.143,6.577c0,4.948-2.191,9.125-5.441,9.125
		c-1.795,0-3.141-1.484-2.709-3.306c0.516-2.175,1.516-4.521,1.516-6.091c0-1.404-0.754-2.575-2.314-2.575
		c-1.836,0-3.311,1.897-3.311,4.441c0,1.62,0.547,2.716,0.547,2.716s-1.877,7.957-2.207,9.352c-0.656,2.775-0.098,6.178-0.053,6.521
		c0.029,0.203,0.291,0.252,0.41,0.098c0.168-0.221,2.354-2.919,3.098-5.615c0.211-0.764,1.207-4.717,1.207-4.717
		c0.598,1.137,2.34,2.139,4.191,2.139c5.518,0,9.26-5.029,9.26-11.762C23.129,4.741,18.816,0,12.264,0z"/>
</g>
</svg>
