<?xml version="1.0" encoding="utf-8"?>
<!-- Generator: Adobe Illustrator 16.0.0, SVG Export Plug-In . SVG Version: 6.00 Build 0)  -->
<!DOCTYPE svg PUBLIC "-//W3C//DTD SVG 1.1//EN" "http://www.w3.org/Graphics/SVG/1.1/DTD/svg11.dtd">
<svg version="1.1" id="Calque_1" xmlns="http://www.w3.org/2000/svg" xmlns:xlink="http://www.w3.org/1999/xlink" x="0px" y="0px"
	 width="100px" height="23.432px" viewBox="0 0 100 23.432" enable-background="new 0 0 100 23.432" xml:space="preserve">
<g>
	<path fill-rule="evenodd" clip-rule="evenodd" fill="#FFFFFF" d="M0,0.944c0.764,0,1.492-0.002,2.218,0.001
		c3.09,0.018,6.18,0.006,9.27,0.06c3.372,0.062,6.164,2.199,6.781,5.315c0.572,2.895,0.191,5.602-2.229,7.661
		c-0.281,0.239-0.159,0.414-0.036,0.636c1.438,2.649,2.873,5.299,4.308,7.951c0.1,0.184,0.187,0.373,0.31,0.617
		c-0.229,0.012-0.399,0.027-0.567,0.03c-1.714,0-3.43-0.016-5.145,0.012c-0.406,0.007-0.586-0.137-0.75-0.49
		c-1.033-2.214-2.092-4.415-3.127-6.628c-0.149-0.318-0.322-0.442-0.684-0.436c-1.501,0.021-3,0.008-4.501,0.009
		c-0.156,0.001-0.312,0.018-0.527,0.031c0,2.501,0,4.974,0,7.461c-1.801,0-3.542,0-5.319,0C0,15.755,0,8.375,0,0.944z M5.353,5.753
		c0,1.773,0,3.498,0,5.254c1.773,0,3.521,0.063,5.258-0.018c1.444-0.067,2.345-1.067,2.371-2.404
		c0.026-1.487-0.887-2.722-2.303-2.807C8.925,5.673,7.157,5.753,5.353,5.753z"/>
	<path fill-rule="evenodd" clip-rule="evenodd" fill="#FFFFFF" d="M67.863,23.216c0-7.523,0-14.985,0-22.527
		C69.575,0.463,71.293,0.235,73.069,0c0,1.921,0,3.754,0,5.67c0.431,0,0.818-0.022,1.201,0.005c1.17,0.078,2.376,0.028,3.506,0.293
		c3.045,0.711,5.249,3.556,5.282,6.678c0.016,1.551,0.092,3.122-0.106,4.651c-0.417,3.245-3.17,5.752-6.461,5.885
		c-2.693,0.108-5.393,0.029-8.091,0.033C68.241,23.216,68.083,23.216,67.863,23.216z M73.119,18.383
		c0.908,0,1.785,0.063,2.648-0.016c1.234-0.115,2.116-1.101,2.156-2.343c0.031-1.052,0.031-2.106-0.002-3.16
		c-0.038-1.15-0.778-2.085-1.91-2.267c-0.939-0.149-1.906-0.119-2.892-0.17C73.119,13.128,73.119,15.729,73.119,18.383z"/>
	<path fill-rule="evenodd" clip-rule="evenodd" fill="#FFFFFF" d="M50.441,5.789c1.754,0,3.463,0,5.263,0c0,0.211,0,0.417,0,0.623
		c0,3.072-0.009,6.146,0.012,9.217c0.002,0.582,0.062,1.185,0.227,1.738c0.277,0.913,1.017,1.335,2.09,1.331
		c1.057-0.006,1.809-0.459,2.071-1.367c0.156-0.54,0.218-1.124,0.222-1.688c0.019-3.071,0.01-6.145,0.01-9.217
		c0-0.195,0-0.39,0-0.625c1.754,0,3.473,0,5.239,0c0.01,0.178,0.026,0.351,0.026,0.523c0.002,3.288,0.028,6.574-0.014,9.86
		c-0.01,0.955-0.106,1.934-0.336,2.859c-0.561,2.284-2.09,3.654-4.36,4.143c-1.868,0.404-3.766,0.417-5.639,0.036
		c-2.615-0.533-4.253-2.3-4.657-4.953c-0.109-0.721-0.173-1.455-0.177-2.185c-0.017-3.252-0.007-6.501-0.007-9.753
		C50.413,6.158,50.429,5.985,50.441,5.789z"/>
	<path fill-rule="evenodd" clip-rule="evenodd" fill="#FFFFFF" d="M20.696,5.789c1.769,0,3.473,0,5.242,0c0,0.215,0,0.406,0,0.596
		c0,3.071,0,6.142,0.005,9.212c0,0.374,0.009,0.752,0.068,1.119c0.229,1.396,1.019,2.042,2.39,1.98
		c1.284-0.057,2.043-0.837,2.14-2.21c0.024-0.338,0.024-0.679,0.024-1.017c0.002-3.017,0-6.033,0-9.05c0-0.194,0-0.386,0-0.617
		c1.771,0,3.492,0,5.237,0c0.019,0.103,0.052,0.206,0.052,0.307c-0.014,3.713,0.05,7.427-0.068,11.138
		c-0.116,3.69-2.206,5.844-5.901,6.129c-1.497,0.115-3.05,0.062-4.522-0.204c-2.57-0.463-4.187-2.388-4.556-5.089
		c-0.08-0.582-0.125-1.171-0.127-1.759c-0.012-3.357-0.007-6.713-0.005-10.069C20.673,6.113,20.687,5.972,20.696,5.789z"/>
	<path fill-rule="evenodd" clip-rule="evenodd" fill="#FFFFFF" d="M100,19.693c-1.721,2.249-3.951,3.446-6.674,3.726
		c-1.924,0.197-3.788-0.042-5.459-1.096c-1.828-1.151-2.986-2.815-3.177-4.958c-0.166-1.876-0.227-3.796-0.029-5.662
		c0.355-3.323,2.731-5.579,6.045-6.059c1.807-0.261,3.572-0.123,5.223,0.7c2.511,1.254,3.762,3.362,3.929,6.121
		c0.064,1.082,0.01,2.17,0.01,3.316c-3.454,0-6.873,0-10.277,0c-0.397,1.805,0.714,3.143,2.631,3.25
		c1.646,0.091,3.045-0.462,4.253-1.671C97.629,18.124,98.78,18.887,100,19.693z M94.924,11.926c-0.017-1.064-0.293-1.95-1.246-2.428
		C92.6,8.959,91.491,8.961,90.481,9.67c-0.759,0.532-0.993,1.334-0.958,2.256C91.337,11.926,93.097,11.926,94.924,11.926z"/>
	<path fill-rule="evenodd" clip-rule="evenodd" fill="#FFFFFF" d="M39.653,5.778c0-1.696,0-3.316,0-4.992
		c1.783-0.232,3.53-0.458,5.348-0.695c0,1.897,0,3.757,0,5.66c1.31,0,2.553,0,3.839,0c0,1.584,0,3.122,0,4.703
		c-1.25,0-2.492,0-3.809,0c0,4.294,0,8.544,0,12.823c-1.813,0-3.554,0-5.353,0c0-4.253,0-8.492,0-12.788c-0.704,0-1.354,0-2.045,0
		c0-1.593,0-3.132,0-4.71C38.298,5.778,38.937,5.778,39.653,5.778z"/>
</g>
</svg>
