<?xml version="1.0" encoding="utf-8"?>
<!-- Generator: Adobe Illustrator 16.0.0, SVG Export Plug-In . SVG Version: 6.00 Build 0)  -->
<!DOCTYPE svg PUBLIC "-//W3C//DTD SVG 1.1//EN" "http://www.w3.org/Graphics/SVG/1.1/DTD/svg11.dtd">
<svg version="1.1" xmlns="http://www.w3.org/2000/svg" xmlns:xlink="http://www.w3.org/1999/xlink" x="0px" y="0px" width="211px"
	 height="210.5px" viewBox="0 0 211 210.5" enable-background="new 0 0 211 210.5" xml:space="preserve">
<g id="Calque_1" display="none">
	<rect display="inline" fill="none" stroke="#FFFFFF" stroke-miterlimit="10" width="211" height="210.5"/>
</g>
<g id="Calque_2">
	<g>
		<path fill="#FFFFFF" d="M171.688,148.368c-0.48,1.064-1.527,1.695-2.621,1.695c-0.396,0-0.795-0.081-1.178-0.253l-2.383-1.072
			c-1.445-0.65-2.094-2.35-1.443-3.796c0.652-1.447,2.352-2.091,3.797-1.441l2.383,1.071
			C171.691,145.224,172.336,146.922,171.688,148.368L171.688,148.368z M89.245,68.133c-5.224,0-9.473,4.478-9.473,9.98
			c0,1.586,1.284,2.871,2.871,2.871s2.871-1.285,2.871-2.871c0-2.337,1.673-4.237,3.73-4.237c1.585,0,2.87-1.286,2.87-2.872
			S90.83,68.133,89.245,68.133L89.245,68.133z M167.324,127.541c0.342,0,0.684-0.059,1.02-0.187l2.443-0.929
			c1.482-0.563,2.229-2.22,1.666-3.704c-0.564-1.481-2.221-2.229-3.703-1.664l-2.443,0.926c-1.482,0.564-2.229,2.223-1.666,3.705
			C165.074,126.835,166.168,127.541,167.324,127.541L167.324,127.541z M72.105,137.857v8.417c0,4.641,3.776,8.418,8.417,8.418
			h32.997c1.586,0,2.871,1.285,2.871,2.87c0,1.587-1.285,2.872-2.871,2.872H80.522c-7.808,0-14.16-6.352-14.16-14.16v-11.17
			c-0.001-0.04-0.003-0.08-0.003-0.121s0-0.08,0.003-0.119V89.948c-0.001-0.039-0.003-0.08-0.003-0.121c0-0.04,0-0.08,0.003-0.121
			V70.438c0-6.825,4.854-12.537,11.29-13.869V44.67c0-1.586,1.284-2.871,2.87-2.871h45.158c1.587,0,2.871,1.285,2.871,2.871v11.899
			c6.437,1.332,11.29,7.044,11.29,13.869v38.949c0,1.586-1.285,2.871-2.872,2.871s-2.872-1.285-2.872-2.871V92.699H72.105v39.413
			h41.414c1.586,0,2.871,1.286,2.871,2.871c0,1.586-1.285,2.871-2.871,2.871H72.105V137.857z M83.395,56.278h39.414v-8.737H83.395
			V56.278z M72.105,86.956h61.992V70.438c0-4.641-3.775-8.418-8.417-8.418H80.522c-4.641,0-8.417,3.777-8.417,8.418V86.956z
			 M79.772,101.117v22.577c0,1.587,1.284,2.872,2.871,2.872s2.872-1.285,2.872-2.872v-22.577c0-1.586-1.285-2.872-2.872-2.872
			S79.772,99.531,79.772,101.117L79.772,101.117z M151.957,133.962v22.579c0,7.809-6.354,14.16-14.159,14.16
			c-7.812,0-14.161-6.352-14.161-14.16v-11.229c0-0.02,0-0.04,0-0.06c0-0.021,0-0.04,0-0.061v-11.229
			c0-7.81,6.35-14.161,14.16-14.161h0.001C145.604,119.801,151.957,126.152,151.957,133.962L151.957,133.962z M146.213,133.962
			c0-4.642-3.775-8.417-8.415-8.417h-0.001c-4.643,0-8.419,3.775-8.419,8.417v8.418h8.419c1.584,0,2.871,1.284,2.871,2.872
			c0,1.586-1.287,2.872-2.871,2.872h-8.419v8.417c0,4.641,3.776,8.418,8.419,8.418c4.641,0,8.416-3.777,8.416-8.418V133.962z
			 M154.861,104.044c-1.449-0.649-3.146-0.004-3.799,1.443l-1.07,2.383c-0.65,1.447-0.006,3.146,1.441,3.798
			c0.383,0.17,0.781,0.252,1.178,0.252c1.096,0,2.141-0.632,2.619-1.695l1.072-2.384
			C156.951,106.396,156.307,104.694,154.861,104.044L154.861,104.044z M154.861,104.044"/>
		<g>
			<path fill="#FFFFFF" d="M105.501,208.948c-57.18,0-103.698-46.519-103.698-103.698S48.321,1.552,105.501,1.552
				c57.178,0,103.696,46.519,103.696,103.698S162.679,208.948,105.501,208.948z M105.501,7.052
				c-54.146,0-98.198,44.052-98.198,98.198s44.052,98.198,98.198,98.198c54.146,0,98.196-44.052,98.196-98.198
				S159.646,7.052,105.501,7.052z"/>
		</g>
	</g>
</g>
</svg>
